<svg width="1363" height="297" viewBox="0 0 1363 297" fill="none" xmlns="http://www.w3.org/2000/svg">
<path d="M0 15C0 6.71573 6.71573 0 15 0H37V297H15C6.71573 297 0 290.284 0 282V15Z" fill="#00B7EB"/>
<path d="M37 0H1066V297H37V0Z" fill="#F0F0F0"/>
<path d="M105.691 53.7832L98.7305 75H93.123L102.633 49.4062H106.201L105.691 53.7832ZM111.475 75L104.496 53.7832L103.934 49.4062H107.537L117.1 75H111.475ZM111.158 65.4727V69.6035H97.6406V65.4727H111.158ZM124.5 48V75H119.42V48H124.5ZM134.027 55.9805V75H128.947V55.9805H134.027ZM128.631 51.0234C128.631 50.2852 128.889 49.6758 129.404 49.1953C129.92 48.7148 130.611 48.4746 131.479 48.4746C132.334 48.4746 133.02 48.7148 133.535 49.1953C134.062 49.6758 134.326 50.2852 134.326 51.0234C134.326 51.7617 134.062 52.3711 133.535 52.8516C133.02 53.332 132.334 53.5723 131.479 53.5723C130.611 53.5723 129.92 53.332 129.404 52.8516C128.889 52.3711 128.631 51.7617 128.631 51.0234ZM149.9 49.4062H154.365L160.939 68.1973L167.514 49.4062H171.979L162.732 75H159.146L149.9 49.4062ZM147.492 49.4062H151.939L152.748 67.7227V75H147.492V49.4062ZM169.939 49.4062H174.404V75H169.131V67.7227L169.939 49.4062ZM177.902 65.6836V65.3145C177.902 63.9199 178.102 62.6367 178.5 61.4648C178.898 60.2812 179.479 59.2559 180.24 58.3887C181.002 57.5215 181.939 56.8477 183.053 56.3672C184.166 55.875 185.443 55.6289 186.885 55.6289C188.326 55.6289 189.609 55.875 190.734 56.3672C191.859 56.8477 192.803 57.5215 193.564 58.3887C194.338 59.2559 194.924 60.2812 195.322 61.4648C195.721 62.6367 195.92 63.9199 195.92 65.3145V65.6836C195.92 67.0664 195.721 68.3496 195.322 69.5332C194.924 70.7051 194.338 71.7305 193.564 72.6094C192.803 73.4766 191.865 74.1504 190.752 74.6309C189.639 75.1113 188.361 75.3516 186.92 75.3516C185.479 75.3516 184.195 75.1113 183.07 74.6309C181.957 74.1504 181.014 73.4766 180.24 72.6094C179.479 71.7305 178.898 70.7051 178.5 69.5332C178.102 68.3496 177.902 67.0664 177.902 65.6836ZM182.965 65.3145V65.6836C182.965 66.4805 183.035 67.2246 183.176 67.916C183.316 68.6074 183.539 69.2168 183.844 69.7441C184.16 70.2598 184.57 70.6641 185.074 70.957C185.578 71.25 186.193 71.3965 186.92 71.3965C187.623 71.3965 188.227 71.25 188.73 70.957C189.234 70.6641 189.639 70.2598 189.943 69.7441C190.248 69.2168 190.471 68.6074 190.611 67.916C190.764 67.2246 190.84 66.4805 190.84 65.6836V65.3145C190.84 64.541 190.764 63.8145 190.611 63.1348C190.471 62.4434 190.242 61.834 189.926 61.3066C189.621 60.7676 189.217 60.3457 188.713 60.041C188.209 59.7363 187.6 59.584 186.885 59.584C186.17 59.584 185.561 59.7363 185.057 60.041C184.564 60.3457 184.16 60.7676 183.844 61.3066C183.539 61.834 183.316 62.4434 183.176 63.1348C183.035 63.8145 182.965 64.541 182.965 65.3145ZM204.094 60.1289V75H199.031V55.9805H203.795L204.094 60.1289ZM209.824 55.8574L209.736 60.5508C209.49 60.5156 209.191 60.4863 208.84 60.4629C208.5 60.4277 208.189 60.4102 207.908 60.4102C207.193 60.4102 206.572 60.5039 206.045 60.6914C205.529 60.8672 205.096 61.1309 204.744 61.4824C204.404 61.834 204.146 62.2617 203.971 62.7656C203.807 63.2695 203.713 63.8438 203.689 64.4883L202.67 64.1719C202.67 62.9414 202.793 61.8105 203.039 60.7793C203.285 59.7363 203.643 58.8281 204.111 58.0547C204.592 57.2812 205.178 56.6836 205.869 56.2617C206.561 55.8398 207.352 55.6289 208.242 55.6289C208.523 55.6289 208.811 55.6523 209.104 55.6992C209.396 55.7344 209.637 55.7871 209.824 55.8574ZM222.41 55.9805V59.5664H211.336V55.9805H222.41ZM214.078 51.2871H219.141V69.2695C219.141 69.8203 219.211 70.2422 219.352 70.5352C219.504 70.8281 219.727 71.0332 220.02 71.1504C220.312 71.2559 220.682 71.3086 221.127 71.3086C221.443 71.3086 221.725 71.2969 221.971 71.2734C222.229 71.2383 222.445 71.2031 222.621 71.168L222.639 74.8945C222.205 75.0352 221.736 75.1465 221.232 75.2285C220.729 75.3105 220.172 75.3516 219.562 75.3516C218.449 75.3516 217.477 75.1699 216.645 74.8066C215.824 74.4316 215.191 73.834 214.746 73.0137C214.301 72.1934 214.078 71.1152 214.078 69.7793V51.2871ZM235.559 70.7109V62.2383C235.559 61.6289 235.459 61.1074 235.26 60.6738C235.061 60.2285 234.75 59.8828 234.328 59.6367C233.918 59.3906 233.385 59.2676 232.729 59.2676C232.166 59.2676 231.68 59.3672 231.27 59.5664C230.859 59.7539 230.543 60.0293 230.32 60.3926C230.098 60.7441 229.986 61.1602 229.986 61.6406H224.924C224.924 60.832 225.111 60.0645 225.486 59.3379C225.861 58.6113 226.406 57.9727 227.121 57.4219C227.836 56.8594 228.686 56.4199 229.67 56.1035C230.666 55.7871 231.779 55.6289 233.01 55.6289C234.486 55.6289 235.799 55.875 236.947 56.3672C238.096 56.8594 238.998 57.5977 239.654 58.582C240.322 59.5664 240.656 60.7969 240.656 62.2734V70.4121C240.656 71.4551 240.721 72.3105 240.85 72.9785C240.979 73.6348 241.166 74.209 241.412 74.7012V75H236.297C236.051 74.4844 235.863 73.8398 235.734 73.0664C235.617 72.2812 235.559 71.4961 235.559 70.7109ZM236.227 63.416L236.262 66.2812H233.432C232.764 66.2812 232.184 66.3574 231.691 66.5098C231.199 66.6621 230.795 66.8789 230.479 67.1602C230.162 67.4297 229.928 67.7461 229.775 68.1094C229.635 68.4727 229.564 68.8711 229.564 69.3047C229.564 69.7383 229.664 70.1309 229.863 70.4824C230.062 70.8223 230.35 71.0918 230.725 71.291C231.1 71.4785 231.539 71.5723 232.043 71.5723C232.805 71.5723 233.467 71.4199 234.029 71.1152C234.592 70.8105 235.025 70.4355 235.33 69.9902C235.646 69.5449 235.811 69.123 235.822 68.7246L237.158 70.8691C236.971 71.3496 236.713 71.8477 236.385 72.3633C236.068 72.8789 235.664 73.3652 235.172 73.8223C234.68 74.2676 234.088 74.6367 233.396 74.9297C232.705 75.2109 231.885 75.3516 230.936 75.3516C229.729 75.3516 228.633 75.1113 227.648 74.6309C226.676 74.1387 225.902 73.4648 225.328 72.6094C224.766 71.7422 224.484 70.7578 224.484 69.6562C224.484 68.6602 224.672 67.7754 225.047 67.002C225.422 66.2285 225.973 65.5781 226.699 65.0508C227.438 64.5117 228.357 64.1074 229.459 63.8379C230.561 63.5566 231.838 63.416 233.291 63.416H236.227ZM255.791 70.8516V48H260.889V75H256.301L255.791 70.8516ZM243.768 65.7188V65.3496C243.768 63.8965 243.932 62.5781 244.26 61.3945C244.588 60.1992 245.068 59.1738 245.701 58.3184C246.334 57.4629 247.113 56.8008 248.039 56.332C248.965 55.8633 250.02 55.6289 251.203 55.6289C252.316 55.6289 253.289 55.8633 254.121 56.332C254.965 56.8008 255.68 57.4688 256.266 58.3359C256.863 59.1914 257.344 60.2051 257.707 61.377C258.07 62.5371 258.334 63.8086 258.498 65.1914V66C258.334 67.3242 258.07 68.5547 257.707 69.6914C257.344 70.8281 256.863 71.8242 256.266 72.6797C255.68 73.5234 254.965 74.1797 254.121 74.6484C253.277 75.1172 252.293 75.3516 251.168 75.3516C249.984 75.3516 248.93 75.1113 248.004 74.6309C247.09 74.1504 246.316 73.4766 245.684 72.6094C245.062 71.7422 244.588 70.7227 244.26 69.5508C243.932 68.3789 243.768 67.1016 243.768 65.7188ZM248.83 65.3496V65.7188C248.83 66.5039 248.889 67.2363 249.006 67.916C249.135 68.5957 249.34 69.1992 249.621 69.7266C249.914 70.2422 250.289 70.6465 250.746 70.9395C251.215 71.2207 251.783 71.3613 252.451 71.3613C253.318 71.3613 254.033 71.168 254.596 70.7812C255.158 70.3828 255.586 69.8379 255.879 69.1465C256.184 68.4551 256.359 67.6582 256.406 66.7559V64.4531C256.371 63.7148 256.266 63.0527 256.09 62.4668C255.926 61.8691 255.68 61.3594 255.352 60.9375C255.035 60.5156 254.637 60.1875 254.156 59.9531C253.688 59.7188 253.131 59.6016 252.486 59.6016C251.83 59.6016 251.268 59.7539 250.799 60.0586C250.33 60.3516 249.949 60.7559 249.656 61.2715C249.375 61.7871 249.164 62.3965 249.023 63.0996C248.895 63.791 248.83 64.541 248.83 65.3496ZM275.109 70.7109V62.2383C275.109 61.6289 275.01 61.1074 274.811 60.6738C274.611 60.2285 274.301 59.8828 273.879 59.6367C273.469 59.3906 272.936 59.2676 272.279 59.2676C271.717 59.2676 271.23 59.3672 270.82 59.5664C270.41 59.7539 270.094 60.0293 269.871 60.3926C269.648 60.7441 269.537 61.1602 269.537 61.6406H264.475C264.475 60.832 264.662 60.0645 265.037 59.3379C265.412 58.6113 265.957 57.9727 266.672 57.4219C267.387 56.8594 268.236 56.4199 269.221 56.1035C270.217 55.7871 271.33 55.6289 272.561 55.6289C274.037 55.6289 275.35 55.875 276.498 56.3672C277.646 56.8594 278.549 57.5977 279.205 58.582C279.873 59.5664 280.207 60.7969 280.207 62.2734V70.4121C280.207 71.4551 280.271 72.3105 280.4 72.9785C280.529 73.6348 280.717 74.209 280.963 74.7012V75H275.848C275.602 74.4844 275.414 73.8398 275.285 73.0664C275.168 72.2812 275.109 71.4961 275.109 70.7109ZM275.777 63.416L275.812 66.2812H272.982C272.314 66.2812 271.734 66.3574 271.242 66.5098C270.75 66.6621 270.346 66.8789 270.029 67.1602C269.713 67.4297 269.479 67.7461 269.326 68.1094C269.186 68.4727 269.115 68.8711 269.115 69.3047C269.115 69.7383 269.215 70.1309 269.414 70.4824C269.613 70.8223 269.9 71.0918 270.275 71.291C270.65 71.4785 271.09 71.5723 271.594 71.5723C272.355 71.5723 273.018 71.4199 273.58 71.1152C274.143 70.8105 274.576 70.4355 274.881 69.9902C275.197 69.5449 275.361 69.123 275.373 68.7246L276.709 70.8691C276.521 71.3496 276.264 71.8477 275.936 72.3633C275.619 72.8789 275.215 73.3652 274.723 73.8223C274.23 74.2676 273.639 74.6367 272.947 74.9297C272.256 75.2109 271.436 75.3516 270.486 75.3516C269.279 75.3516 268.184 75.1113 267.199 74.6309C266.227 74.1387 265.453 73.4648 264.879 72.6094C264.316 71.7422 264.035 70.7578 264.035 69.6562C264.035 68.6602 264.223 67.7754 264.598 67.002C264.973 66.2285 265.523 65.5781 266.25 65.0508C266.988 64.5117 267.908 64.1074 269.01 63.8379C270.111 63.5566 271.389 63.416 272.842 63.416H275.777Z" fill="#888888"/>
<path d="M100.793 100.188H108.613L117.5 127.887L126.387 100.188H134.207L120.672 140H114.328L100.793 100.188ZM96.0352 100.188H104.129L105.633 130.703V140H96.0352V100.188ZM130.871 100.188H138.992V140H129.367V130.703L130.871 100.188ZM160.074 132.562V120.367C160.074 119.529 159.956 118.809 159.719 118.207C159.482 117.605 159.108 117.141 158.598 116.812C158.087 116.466 157.404 116.293 156.547 116.293C155.854 116.293 155.262 116.411 154.77 116.648C154.277 116.885 153.904 117.241 153.648 117.715C153.393 118.189 153.266 118.79 153.266 119.52H144.051C144.051 118.152 144.352 116.885 144.953 115.719C145.573 114.534 146.448 113.504 147.578 112.629C148.727 111.754 150.094 111.079 151.68 110.605C153.284 110.113 155.07 109.867 157.039 109.867C159.391 109.867 161.487 110.259 163.328 111.043C165.188 111.827 166.655 113.003 167.73 114.57C168.806 116.12 169.344 118.07 169.344 120.422V132.535C169.344 134.467 169.453 135.935 169.672 136.938C169.891 137.922 170.201 138.788 170.602 139.535V140H161.359C160.922 139.089 160.594 137.977 160.375 136.664C160.174 135.333 160.074 133.966 160.074 132.562ZM161.195 121.926L161.25 126.848H157.176C156.319 126.848 155.59 126.966 154.988 127.203C154.405 127.44 153.931 127.768 153.566 128.188C153.22 128.589 152.965 129.044 152.801 129.555C152.655 130.065 152.582 130.603 152.582 131.168C152.582 131.715 152.71 132.207 152.965 132.645C153.238 133.064 153.603 133.392 154.059 133.629C154.514 133.866 155.025 133.984 155.59 133.984C156.611 133.984 157.477 133.793 158.188 133.41C158.917 133.009 159.473 132.526 159.855 131.961C160.238 131.396 160.43 130.867 160.43 130.375L162.453 134.148C162.089 134.878 161.669 135.616 161.195 136.363C160.74 137.111 160.165 137.803 159.473 138.441C158.798 139.061 157.969 139.572 156.984 139.973C156 140.355 154.806 140.547 153.402 140.547C151.579 140.547 149.902 140.173 148.371 139.426C146.858 138.678 145.646 137.639 144.734 136.309C143.823 134.96 143.367 133.41 143.367 131.66C143.367 130.129 143.641 128.762 144.188 127.559C144.753 126.355 145.6 125.335 146.73 124.496C147.861 123.658 149.301 123.02 151.051 122.582C152.801 122.145 154.861 121.926 157.23 121.926H161.195ZM186.953 133.438C187.81 133.438 188.539 133.283 189.141 132.973C189.76 132.645 190.225 132.189 190.535 131.605C190.863 131.004 191.018 130.284 191 129.445H199.668C199.686 131.669 199.139 133.62 198.027 135.297C196.934 136.956 195.439 138.25 193.543 139.18C191.665 140.091 189.542 140.547 187.172 140.547C184.857 140.547 182.833 140.173 181.102 139.426C179.37 138.66 177.921 137.603 176.754 136.254C175.605 134.887 174.74 133.292 174.156 131.469C173.591 129.646 173.309 127.668 173.309 125.535V124.906C173.309 122.773 173.591 120.796 174.156 118.973C174.74 117.132 175.605 115.536 176.754 114.188C177.921 112.82 179.361 111.763 181.074 111.016C182.806 110.25 184.82 109.867 187.117 109.867C189.578 109.867 191.747 110.332 193.625 111.262C195.521 112.191 197.007 113.54 198.082 115.309C199.158 117.077 199.686 119.219 199.668 121.734H191C191.018 120.841 190.882 120.039 190.59 119.328C190.298 118.617 189.842 118.052 189.223 117.633C188.621 117.195 187.846 116.977 186.898 116.977C185.951 116.977 185.185 117.186 184.602 117.605C184.018 118.025 183.572 118.608 183.262 119.355C182.97 120.085 182.77 120.923 182.66 121.871C182.569 122.819 182.523 123.831 182.523 124.906V125.535C182.523 126.629 182.569 127.659 182.66 128.625C182.77 129.573 182.979 130.411 183.289 131.141C183.599 131.852 184.046 132.417 184.629 132.836C185.212 133.237 185.987 133.438 186.953 133.438ZM212.629 98V140H203.414V98H212.629ZM211.535 124.195L209.375 124.25C209.375 122.172 209.63 120.258 210.141 118.508C210.651 116.758 211.38 115.236 212.328 113.941C213.276 112.647 214.415 111.645 215.746 110.934C217.077 110.223 218.553 109.867 220.176 109.867C221.634 109.867 222.965 110.077 224.168 110.496C225.389 110.915 226.438 111.59 227.312 112.52C228.206 113.449 228.889 114.661 229.363 116.156C229.855 117.651 230.102 119.474 230.102 121.625V140H220.832V121.57C220.832 120.367 220.659 119.438 220.312 118.781C219.984 118.107 219.51 117.642 218.891 117.387C218.271 117.113 217.514 116.977 216.621 116.977C215.546 116.977 214.671 117.159 213.996 117.523C213.322 117.888 212.802 118.398 212.438 119.055C212.091 119.693 211.854 120.449 211.727 121.324C211.599 122.199 211.535 123.156 211.535 124.195ZM244.949 110.414V140H235.707V110.414H244.949ZM235.16 102.785C235.16 101.473 235.634 100.397 236.582 99.5586C237.53 98.7201 238.76 98.3008 240.273 98.3008C241.786 98.3008 243.017 98.7201 243.965 99.5586C244.913 100.397 245.387 101.473 245.387 102.785C245.387 104.098 244.913 105.173 243.965 106.012C243.017 106.85 241.786 107.27 240.273 107.27C238.76 107.27 237.53 106.85 236.582 106.012C235.634 105.173 235.16 104.098 235.16 102.785ZM259.688 116.73V140H250.473V110.414H259.113L259.688 116.73ZM258.594 124.195L256.434 124.25C256.434 121.99 256.707 119.975 257.254 118.207C257.801 116.421 258.576 114.908 259.578 113.668C260.581 112.428 261.775 111.49 263.16 110.852C264.564 110.195 266.122 109.867 267.836 109.867C269.203 109.867 270.452 110.068 271.582 110.469C272.73 110.87 273.715 111.517 274.535 112.41C275.374 113.303 276.012 114.488 276.449 115.965C276.905 117.423 277.133 119.228 277.133 121.379V140H267.863V121.352C267.863 120.167 267.699 119.264 267.371 118.645C267.043 118.007 266.569 117.569 265.949 117.332C265.329 117.095 264.573 116.977 263.68 116.977C262.732 116.977 261.93 117.159 261.273 117.523C260.617 117.888 260.089 118.398 259.688 119.055C259.305 119.693 259.022 120.449 258.84 121.324C258.676 122.199 258.594 123.156 258.594 124.195ZM296.574 140.547C294.168 140.547 292.017 140.173 290.121 139.426C288.225 138.66 286.621 137.612 285.309 136.281C284.014 134.951 283.021 133.419 282.328 131.688C281.654 129.956 281.316 128.124 281.316 126.191V125.152C281.316 122.983 281.617 120.978 282.219 119.137C282.82 117.277 283.714 115.655 284.898 114.27C286.083 112.884 287.569 111.809 289.355 111.043C291.142 110.259 293.22 109.867 295.59 109.867C297.686 109.867 299.564 110.204 301.223 110.879C302.882 111.553 304.285 112.52 305.434 113.777C306.6 115.035 307.484 116.557 308.086 118.344C308.706 120.13 309.016 122.135 309.016 124.359V128.105H284.844V122.336H300.02V121.625C300.038 120.641 299.865 119.802 299.5 119.109C299.154 118.417 298.643 117.888 297.969 117.523C297.294 117.159 296.474 116.977 295.508 116.977C294.505 116.977 293.676 117.195 293.02 117.633C292.382 118.07 291.88 118.672 291.516 119.438C291.169 120.185 290.923 121.051 290.777 122.035C290.632 123.02 290.559 124.059 290.559 125.152V126.191C290.559 127.285 290.704 128.279 290.996 129.172C291.306 130.065 291.743 130.831 292.309 131.469C292.892 132.089 293.585 132.572 294.387 132.918C295.207 133.264 296.137 133.438 297.176 133.438C298.434 133.438 299.673 133.201 300.895 132.727C302.116 132.253 303.164 131.469 304.039 130.375L308.223 135.352C307.621 136.208 306.764 137.038 305.652 137.84C304.559 138.642 303.246 139.298 301.715 139.809C300.184 140.301 298.47 140.547 296.574 140.547ZM349.785 126.52H359.355C359.228 129.29 358.48 131.733 357.113 133.848C355.746 135.962 353.85 137.612 351.426 138.797C349.02 139.964 346.176 140.547 342.895 140.547C340.233 140.547 337.854 140.1 335.758 139.207C333.68 138.314 331.911 137.029 330.453 135.352C329.013 133.674 327.91 131.642 327.145 129.254C326.397 126.866 326.023 124.177 326.023 121.188V119.027C326.023 116.038 326.415 113.349 327.199 110.961C328.001 108.555 329.132 106.513 330.59 104.836C332.066 103.141 333.835 101.846 335.895 100.953C337.954 100.06 340.242 99.6133 342.758 99.6133C346.221 99.6133 349.147 100.233 351.535 101.473C353.923 102.712 355.773 104.417 357.086 106.586C358.398 108.737 359.173 111.189 359.41 113.941H349.84C349.803 112.447 349.548 111.198 349.074 110.195C348.6 109.174 347.853 108.409 346.832 107.898C345.811 107.388 344.453 107.133 342.758 107.133C341.573 107.133 340.543 107.352 339.668 107.789C338.793 108.227 338.064 108.919 337.48 109.867C336.897 110.815 336.46 112.046 336.168 113.559C335.895 115.053 335.758 116.858 335.758 118.973V121.188C335.758 123.302 335.885 125.107 336.141 126.602C336.396 128.096 336.806 129.318 337.371 130.266C337.936 131.214 338.665 131.915 339.559 132.371C340.47 132.809 341.582 133.027 342.895 133.027C344.353 133.027 345.583 132.799 346.586 132.344C347.589 131.87 348.363 131.159 348.91 130.211C349.457 129.245 349.749 128.014 349.785 126.52ZM362.309 125.508V124.934C362.309 122.764 362.618 120.768 363.238 118.945C363.858 117.104 364.77 115.509 365.973 114.16C367.176 112.811 368.661 111.763 370.43 111.016C372.198 110.25 374.24 109.867 376.555 109.867C378.888 109.867 380.939 110.25 382.707 111.016C384.493 111.763 385.988 112.811 387.191 114.16C388.395 115.509 389.306 117.104 389.926 118.945C390.546 120.768 390.855 122.764 390.855 124.934V125.508C390.855 127.659 390.546 129.655 389.926 131.496C389.306 133.319 388.395 134.914 387.191 136.281C385.988 137.63 384.503 138.678 382.734 139.426C380.966 140.173 378.924 140.547 376.609 140.547C374.294 140.547 372.243 140.173 370.457 139.426C368.671 138.678 367.176 137.63 365.973 136.281C364.77 134.914 363.858 133.319 363.238 131.496C362.618 129.655 362.309 127.659 362.309 125.508ZM371.523 124.934V125.508C371.523 126.62 371.605 127.659 371.77 128.625C371.934 129.591 372.207 130.439 372.59 131.168C372.973 131.879 373.492 132.435 374.148 132.836C374.805 133.237 375.625 133.438 376.609 133.438C377.576 133.438 378.378 133.237 379.016 132.836C379.672 132.435 380.191 131.879 380.574 131.168C380.957 130.439 381.23 129.591 381.395 128.625C381.559 127.659 381.641 126.62 381.641 125.508V124.934C381.641 123.858 381.559 122.846 381.395 121.898C381.23 120.932 380.957 120.085 380.574 119.355C380.191 118.608 379.672 118.025 379.016 117.605C378.359 117.186 377.539 116.977 376.555 116.977C375.589 116.977 374.777 117.186 374.121 117.605C373.483 118.025 372.973 118.608 372.59 119.355C372.207 120.085 371.934 120.932 371.77 121.898C371.605 122.846 371.523 123.858 371.523 124.934ZM404.008 116.73V140H394.793V110.414H403.434L404.008 116.73ZM402.914 124.195L400.754 124.25C400.754 121.99 401.027 119.975 401.574 118.207C402.121 116.421 402.896 114.908 403.898 113.668C404.901 112.428 406.095 111.49 407.48 110.852C408.884 110.195 410.443 109.867 412.156 109.867C413.523 109.867 414.772 110.068 415.902 110.469C417.051 110.87 418.035 111.517 418.855 112.41C419.694 113.303 420.332 114.488 420.77 115.965C421.225 117.423 421.453 119.228 421.453 121.379V140H412.184V121.352C412.184 120.167 412.02 119.264 411.691 118.645C411.363 118.007 410.889 117.569 410.27 117.332C409.65 117.095 408.893 116.977 408 116.977C407.052 116.977 406.25 117.159 405.594 117.523C404.938 117.888 404.409 118.398 404.008 119.055C403.625 119.693 403.342 120.449 403.16 121.324C402.996 122.199 402.914 123.156 402.914 124.195ZM442.152 110.414V116.812H424.324V110.414H442.152ZM428.07 103.059H437.285V130.348C437.285 131.132 437.376 131.742 437.559 132.18C437.741 132.599 438.051 132.9 438.488 133.082C438.944 133.246 439.546 133.328 440.293 133.328C440.822 133.328 441.259 133.319 441.605 133.301C441.952 133.264 442.28 133.219 442.59 133.164V139.754C441.806 140.009 440.986 140.201 440.129 140.328C439.272 140.474 438.361 140.547 437.395 140.547C435.426 140.547 433.74 140.237 432.336 139.617C430.951 138.997 429.893 138.022 429.164 136.691C428.435 135.361 428.07 133.629 428.07 131.496V103.059ZM455.113 117.742V140H445.898V110.414H454.512L455.113 117.742ZM463.863 110.195L463.699 118.754C463.335 118.717 462.842 118.672 462.223 118.617C461.603 118.562 461.083 118.535 460.664 118.535C459.589 118.535 458.659 118.663 457.875 118.918C457.109 119.155 456.471 119.52 455.961 120.012C455.469 120.486 455.104 121.087 454.867 121.816C454.648 122.546 454.548 123.393 454.566 124.359L452.898 123.266C452.898 121.279 453.09 119.474 453.473 117.852C453.874 116.211 454.439 114.798 455.168 113.613C455.897 112.41 456.781 111.49 457.82 110.852C458.859 110.195 460.026 109.867 461.32 109.867C461.776 109.867 462.223 109.895 462.66 109.949C463.116 110.004 463.517 110.086 463.863 110.195ZM464.902 125.508V124.934C464.902 122.764 465.212 120.768 465.832 118.945C466.452 117.104 467.363 115.509 468.566 114.16C469.77 112.811 471.255 111.763 473.023 111.016C474.792 110.25 476.833 109.867 479.148 109.867C481.482 109.867 483.533 110.25 485.301 111.016C487.087 111.763 488.582 112.811 489.785 114.16C490.988 115.509 491.9 117.104 492.52 118.945C493.139 120.768 493.449 122.764 493.449 124.934V125.508C493.449 127.659 493.139 129.655 492.52 131.496C491.9 133.319 490.988 134.914 489.785 136.281C488.582 137.63 487.096 138.678 485.328 139.426C483.56 140.173 481.518 140.547 479.203 140.547C476.888 140.547 474.837 140.173 473.051 139.426C471.264 138.678 469.77 137.63 468.566 136.281C467.363 134.914 466.452 133.319 465.832 131.496C465.212 129.655 464.902 127.659 464.902 125.508ZM474.117 124.934V125.508C474.117 126.62 474.199 127.659 474.363 128.625C474.527 129.591 474.801 130.439 475.184 131.168C475.566 131.879 476.086 132.435 476.742 132.836C477.398 133.237 478.219 133.438 479.203 133.438C480.169 133.438 480.971 133.237 481.609 132.836C482.266 132.435 482.785 131.879 483.168 131.168C483.551 130.439 483.824 129.591 483.988 128.625C484.152 127.659 484.234 126.62 484.234 125.508V124.934C484.234 123.858 484.152 122.846 483.988 121.898C483.824 120.932 483.551 120.085 483.168 119.355C482.785 118.608 482.266 118.025 481.609 117.605C480.953 117.186 480.133 116.977 479.148 116.977C478.182 116.977 477.371 117.186 476.715 117.605C476.077 118.025 475.566 118.608 475.184 119.355C474.801 120.085 474.527 120.932 474.363 121.898C474.199 122.846 474.117 123.858 474.117 124.934ZM507.285 98V140H498.043V98H507.285ZM522.707 98V140H513.465V98H522.707ZM542.723 140.547C540.316 140.547 538.165 140.173 536.27 139.426C534.374 138.66 532.77 137.612 531.457 136.281C530.163 134.951 529.169 133.419 528.477 131.688C527.802 129.956 527.465 128.124 527.465 126.191V125.152C527.465 122.983 527.766 120.978 528.367 119.137C528.969 117.277 529.862 115.655 531.047 114.27C532.232 112.884 533.717 111.809 535.504 111.043C537.29 110.259 539.368 109.867 541.738 109.867C543.835 109.867 545.712 110.204 547.371 110.879C549.03 111.553 550.434 112.52 551.582 113.777C552.749 115.035 553.633 116.557 554.234 118.344C554.854 120.13 555.164 122.135 555.164 124.359V128.105H530.992V122.336H546.168V121.625C546.186 120.641 546.013 119.802 545.648 119.109C545.302 118.417 544.792 117.888 544.117 117.523C543.443 117.159 542.622 116.977 541.656 116.977C540.654 116.977 539.824 117.195 539.168 117.633C538.53 118.07 538.029 118.672 537.664 119.438C537.318 120.185 537.072 121.051 536.926 122.035C536.78 123.02 536.707 124.059 536.707 125.152V126.191C536.707 127.285 536.853 128.279 537.145 129.172C537.454 130.065 537.892 130.831 538.457 131.469C539.04 132.089 539.733 132.572 540.535 132.918C541.355 133.264 542.285 133.438 543.324 133.438C544.582 133.438 545.822 133.201 547.043 132.727C548.264 132.253 549.312 131.469 550.188 130.375L554.371 135.352C553.77 136.208 552.913 137.038 551.801 137.84C550.707 138.642 549.395 139.298 547.863 139.809C546.332 140.301 544.618 140.547 542.723 140.547ZM568.207 117.742V140H558.992V110.414H567.605L568.207 117.742ZM576.957 110.195L576.793 118.754C576.428 118.717 575.936 118.672 575.316 118.617C574.697 118.562 574.177 118.535 573.758 118.535C572.682 118.535 571.753 118.663 570.969 118.918C570.203 119.155 569.565 119.52 569.055 120.012C568.562 120.486 568.198 121.087 567.961 121.816C567.742 122.546 567.642 123.393 567.66 124.359L565.992 123.266C565.992 121.279 566.184 119.474 566.566 117.852C566.967 116.211 567.533 114.798 568.262 113.613C568.991 112.41 569.875 111.49 570.914 110.852C571.953 110.195 573.12 109.867 574.414 109.867C574.87 109.867 575.316 109.895 575.754 109.949C576.21 110.004 576.611 110.086 576.957 110.195Z" fill="black"/>
<rect x="93" y="178" width="917" height="77" rx="10" fill="#D3D3D3"/>
<rect x="111" y="196" width="91" height="41" rx="3" fill="#424242"/>
<rect x="111" y="196" width="91" height="41" rx="3" stroke="#424242" stroke-width="4"/>
<path d="M134.141 210.203H139.177C140.161 210.203 141.017 210.35 141.743 210.643C142.47 210.936 143.029 211.369 143.422 211.943C143.82 212.518 144.02 213.227 144.02 214.07C144.02 214.803 143.905 215.415 143.677 215.907C143.448 216.399 143.129 216.807 142.719 217.129C142.314 217.445 141.843 217.706 141.304 217.911L140.293 218.482H136.065L136.048 216.101H139.177C139.569 216.101 139.895 216.03 140.152 215.89C140.41 215.749 140.604 215.55 140.732 215.292C140.867 215.028 140.935 214.715 140.935 214.352C140.935 213.982 140.867 213.666 140.732 213.402C140.598 213.139 140.398 212.937 140.135 212.796C139.877 212.655 139.558 212.585 139.177 212.585H137.226V223H134.141V210.203ZM141.146 223L138.315 217.34L141.585 217.322L144.45 222.868V223H141.146ZM150.348 223.176C149.574 223.176 148.883 223.056 148.273 222.815C147.664 222.569 147.148 222.232 146.727 221.805C146.311 221.377 145.991 220.885 145.769 220.328C145.552 219.771 145.443 219.183 145.443 218.562V218.228C145.443 217.53 145.54 216.886 145.733 216.294C145.927 215.696 146.214 215.175 146.595 214.729C146.976 214.284 147.453 213.938 148.027 213.692C148.602 213.44 149.27 213.314 150.031 213.314C150.705 213.314 151.309 213.423 151.842 213.64C152.375 213.856 152.826 214.167 153.195 214.571C153.57 214.976 153.854 215.465 154.048 216.039C154.247 216.613 154.347 217.258 154.347 217.973V219.177H146.577V217.322H151.455V217.094C151.461 216.777 151.405 216.508 151.288 216.285C151.177 216.062 151.013 215.893 150.796 215.775C150.579 215.658 150.315 215.6 150.005 215.6C149.683 215.6 149.416 215.67 149.205 215.811C149 215.951 148.839 216.145 148.722 216.391C148.61 216.631 148.531 216.909 148.484 217.226C148.438 217.542 148.414 217.876 148.414 218.228V218.562C148.414 218.913 148.461 219.232 148.555 219.52C148.654 219.807 148.795 220.053 148.977 220.258C149.164 220.457 149.387 220.612 149.645 220.724C149.908 220.835 150.207 220.891 150.541 220.891C150.945 220.891 151.344 220.814 151.736 220.662C152.129 220.51 152.466 220.258 152.747 219.906L154.092 221.506C153.898 221.781 153.623 222.048 153.266 222.306C152.914 222.563 152.492 222.774 152 222.938C151.508 223.097 150.957 223.176 150.348 223.176ZM160.49 220.609V216.689C160.49 216.42 160.452 216.188 160.376 215.995C160.3 215.802 160.18 215.652 160.016 215.547C159.852 215.436 159.632 215.38 159.356 215.38C159.134 215.38 158.943 215.418 158.785 215.494C158.627 215.57 158.507 215.685 158.425 215.837C158.343 215.989 158.302 216.183 158.302 216.417H155.34C155.34 215.978 155.437 215.57 155.63 215.195C155.829 214.814 156.11 214.483 156.474 214.202C156.843 213.921 157.282 213.704 157.792 213.552C158.308 213.394 158.882 213.314 159.515 213.314C160.271 213.314 160.944 213.44 161.536 213.692C162.134 213.944 162.605 214.322 162.951 214.826C163.297 215.324 163.47 215.951 163.47 216.707V220.601C163.47 221.222 163.505 221.693 163.575 222.016C163.646 222.332 163.745 222.61 163.874 222.851V223H160.903C160.763 222.707 160.657 222.35 160.587 221.928C160.522 221.5 160.49 221.061 160.49 220.609ZM160.851 217.19L160.868 218.772H159.559C159.283 218.772 159.049 218.811 158.855 218.887C158.668 218.963 158.516 219.068 158.398 219.203C158.287 219.332 158.205 219.479 158.152 219.643C158.105 219.807 158.082 219.979 158.082 220.161C158.082 220.337 158.123 220.495 158.205 220.636C158.293 220.771 158.41 220.876 158.557 220.952C158.703 221.028 158.867 221.066 159.049 221.066C159.377 221.066 159.655 221.005 159.884 220.882C160.118 220.753 160.297 220.598 160.42 220.416C160.543 220.234 160.604 220.064 160.604 219.906L161.255 221.119C161.138 221.354 161.003 221.591 160.851 221.831C160.704 222.071 160.52 222.294 160.297 222.499C160.08 222.698 159.813 222.862 159.497 222.991C159.181 223.114 158.797 223.176 158.346 223.176C157.76 223.176 157.221 223.056 156.729 222.815C156.242 222.575 155.853 222.241 155.56 221.813C155.267 221.38 155.12 220.882 155.12 220.319C155.12 219.827 155.208 219.388 155.384 219.001C155.565 218.614 155.838 218.286 156.201 218.017C156.564 217.747 157.027 217.542 157.59 217.401C158.152 217.261 158.814 217.19 159.576 217.19H160.851ZM169.13 220.891C169.405 220.891 169.64 220.841 169.833 220.741C170.032 220.636 170.182 220.489 170.281 220.302C170.387 220.108 170.437 219.877 170.431 219.607H173.217C173.223 220.322 173.047 220.949 172.689 221.488C172.338 222.021 171.857 222.438 171.248 222.736C170.645 223.029 169.962 223.176 169.2 223.176C168.456 223.176 167.806 223.056 167.249 222.815C166.692 222.569 166.227 222.229 165.852 221.796C165.482 221.356 165.204 220.844 165.017 220.258C164.835 219.672 164.744 219.036 164.744 218.351V218.148C164.744 217.463 164.835 216.827 165.017 216.241C165.204 215.649 165.482 215.137 165.852 214.703C166.227 214.264 166.689 213.924 167.24 213.684C167.797 213.438 168.444 213.314 169.183 213.314C169.974 213.314 170.671 213.464 171.274 213.763C171.884 214.062 172.361 214.495 172.707 215.063C173.053 215.632 173.223 216.32 173.217 217.129H170.431C170.437 216.842 170.393 216.584 170.299 216.355C170.205 216.127 170.059 215.945 169.859 215.811C169.666 215.67 169.417 215.6 169.112 215.6C168.808 215.6 168.562 215.667 168.374 215.802C168.187 215.937 168.043 216.124 167.943 216.364C167.85 216.599 167.785 216.868 167.75 217.173C167.721 217.478 167.706 217.803 167.706 218.148V218.351C167.706 218.702 167.721 219.033 167.75 219.344C167.785 219.648 167.853 219.918 167.952 220.152C168.052 220.381 168.195 220.562 168.383 220.697C168.57 220.826 168.819 220.891 169.13 220.891ZM179.492 213.49V215.547H173.762V213.49H179.492ZM174.966 211.126H177.928V219.897C177.928 220.149 177.957 220.346 178.016 220.486C178.074 220.621 178.174 220.718 178.314 220.776C178.461 220.829 178.654 220.855 178.895 220.855C179.064 220.855 179.205 220.853 179.316 220.847C179.428 220.835 179.533 220.82 179.633 220.803V222.921C179.381 223.003 179.117 223.064 178.842 223.105C178.566 223.152 178.273 223.176 177.963 223.176C177.33 223.176 176.788 223.076 176.337 222.877C175.892 222.678 175.552 222.364 175.317 221.937C175.083 221.509 174.966 220.952 174.966 220.267V211.126Z" fill="white"/>
<rect x="222" y="196" width="130" height="41" rx="3" fill="#424242"/>
<rect x="222" y="196" width="130" height="41" rx="3" stroke="#424242" stroke-width="4"/>
<path d="M253.883 220.627V223H247.062V220.627H253.883ZM248.161 210.203V223H245.076V210.203H248.161ZM253.004 215.283V217.577H247.062V215.283H253.004ZM253.909 210.203V212.585H247.062V210.203H253.909ZM257.521 213.49L258.857 216.109L260.237 213.49H263.313L260.817 218.122L263.445 223H260.343L258.857 220.188L257.381 223H254.278L256.906 218.122L254.419 213.49H257.521ZM267.277 215.318V226.656H264.315V213.49H267.075L267.277 215.318ZM273.113 218.131V218.315C273.113 219.007 273.034 219.648 272.876 220.24C272.718 220.832 272.483 221.348 272.173 221.787C271.862 222.227 271.476 222.569 271.013 222.815C270.556 223.056 270.025 223.176 269.422 223.176C268.854 223.176 268.364 223.05 267.954 222.798C267.544 222.546 267.201 222.197 266.926 221.752C266.65 221.307 266.428 220.797 266.258 220.223C266.088 219.648 265.953 219.042 265.854 218.403V218.166C265.953 217.48 266.088 216.845 266.258 216.259C266.428 215.667 266.65 215.151 266.926 214.712C267.201 214.272 267.541 213.93 267.945 213.684C268.355 213.438 268.845 213.314 269.413 213.314C270.017 213.314 270.547 213.429 271.004 213.657C271.467 213.886 271.854 214.214 272.164 214.642C272.48 215.063 272.718 215.57 272.876 216.162C273.034 216.754 273.113 217.41 273.113 218.131ZM270.151 218.315V218.131C270.151 217.762 270.125 217.425 270.072 217.12C270.02 216.81 269.935 216.54 269.817 216.312C269.706 216.083 269.557 215.907 269.369 215.784C269.182 215.661 268.95 215.6 268.675 215.6C268.358 215.6 268.092 215.649 267.875 215.749C267.664 215.843 267.494 215.989 267.365 216.188C267.242 216.382 267.154 216.625 267.102 216.918C267.055 217.205 267.034 217.542 267.04 217.929V218.649C267.028 219.095 267.072 219.487 267.172 219.827C267.271 220.161 267.444 220.422 267.69 220.609C267.937 220.797 268.271 220.891 268.692 220.891C268.974 220.891 269.208 220.826 269.396 220.697C269.583 220.562 269.732 220.378 269.844 220.144C269.955 219.903 270.034 219.628 270.081 219.317C270.128 219.007 270.151 218.673 270.151 218.315ZM277.42 215.846V223H274.458V213.49H277.227L277.42 215.846ZM280.232 213.42L280.18 216.171C280.062 216.159 279.904 216.145 279.705 216.127C279.506 216.109 279.339 216.101 279.204 216.101C278.858 216.101 278.56 216.142 278.308 216.224C278.062 216.3 277.856 216.417 277.692 216.575C277.534 216.728 277.417 216.921 277.341 217.155C277.271 217.39 277.238 217.662 277.244 217.973L276.708 217.621C276.708 216.982 276.77 216.402 276.893 215.881C277.021 215.354 277.203 214.899 277.438 214.519C277.672 214.132 277.956 213.836 278.29 213.631C278.624 213.42 278.999 213.314 279.415 213.314C279.562 213.314 279.705 213.323 279.846 213.341C279.992 213.358 280.121 213.385 280.232 213.42ZM285.682 223.176C284.908 223.176 284.217 223.056 283.607 222.815C282.998 222.569 282.482 222.232 282.061 221.805C281.645 221.377 281.325 220.885 281.103 220.328C280.886 219.771 280.777 219.183 280.777 218.562V218.228C280.777 217.53 280.874 216.886 281.067 216.294C281.261 215.696 281.548 215.175 281.929 214.729C282.31 214.284 282.787 213.938 283.361 213.692C283.936 213.44 284.604 213.314 285.365 213.314C286.039 213.314 286.643 213.423 287.176 213.64C287.709 213.856 288.16 214.167 288.529 214.571C288.904 214.976 289.188 215.465 289.382 216.039C289.581 216.613 289.681 217.258 289.681 217.973V219.177H281.911V217.322H286.789V217.094C286.795 216.777 286.739 216.508 286.622 216.285C286.511 216.062 286.347 215.893 286.13 215.775C285.913 215.658 285.649 215.6 285.339 215.6C285.017 215.6 284.75 215.67 284.539 215.811C284.334 215.951 284.173 216.145 284.056 216.391C283.944 216.631 283.865 216.909 283.818 217.226C283.771 217.542 283.748 217.876 283.748 218.228V218.562C283.748 218.913 283.795 219.232 283.889 219.52C283.988 219.807 284.129 220.053 284.311 220.258C284.498 220.457 284.721 220.612 284.979 220.724C285.242 220.835 285.541 220.891 285.875 220.891C286.279 220.891 286.678 220.814 287.07 220.662C287.463 220.51 287.8 220.258 288.081 219.906L289.426 221.506C289.232 221.781 288.957 222.048 288.6 222.306C288.248 222.563 287.826 222.774 287.334 222.938C286.842 223.097 286.291 223.176 285.682 223.176ZM295.868 220.328C295.868 220.164 295.812 220.023 295.701 219.906C295.596 219.783 295.408 219.672 295.139 219.572C294.869 219.467 294.491 219.361 294.005 219.256C293.542 219.156 293.105 219.024 292.695 218.86C292.291 218.696 291.937 218.497 291.632 218.263C291.327 218.028 291.087 217.75 290.911 217.428C290.741 217.105 290.656 216.736 290.656 216.32C290.656 215.916 290.741 215.535 290.911 215.178C291.087 214.814 291.342 214.495 291.676 214.22C292.016 213.938 292.429 213.719 292.915 213.561C293.401 213.396 293.955 213.314 294.576 213.314C295.432 213.314 296.17 213.446 296.791 213.71C297.412 213.968 297.89 214.331 298.224 214.8C298.563 215.263 298.733 215.799 298.733 216.408H295.771C295.771 216.168 295.73 215.963 295.648 215.793C295.572 215.623 295.446 215.494 295.271 215.406C295.095 215.312 294.86 215.266 294.567 215.266C294.362 215.266 294.175 215.304 294.005 215.38C293.841 215.456 293.709 215.562 293.609 215.696C293.51 215.831 293.46 215.989 293.46 216.171C293.46 216.3 293.489 216.417 293.548 216.522C293.612 216.622 293.709 216.716 293.838 216.804C293.967 216.886 294.131 216.962 294.33 217.032C294.529 217.097 294.77 217.155 295.051 217.208C295.689 217.325 296.287 217.492 296.844 217.709C297.4 217.926 297.852 218.233 298.197 218.632C298.549 219.03 298.725 219.566 298.725 220.24C298.725 220.662 298.628 221.052 298.435 221.409C298.241 221.761 297.963 222.071 297.6 222.341C297.236 222.604 296.8 222.81 296.29 222.956C295.78 223.103 295.206 223.176 294.567 223.176C293.659 223.176 292.892 223.015 292.265 222.692C291.638 222.364 291.163 221.954 290.841 221.462C290.524 220.964 290.366 220.46 290.366 219.95H293.126C293.138 220.243 293.208 220.483 293.337 220.671C293.472 220.858 293.65 220.996 293.873 221.084C294.096 221.172 294.354 221.216 294.646 221.216C294.916 221.216 295.139 221.178 295.314 221.102C295.496 221.025 295.634 220.923 295.728 220.794C295.821 220.659 295.868 220.504 295.868 220.328ZM305.097 220.328C305.097 220.164 305.041 220.023 304.93 219.906C304.824 219.783 304.637 219.672 304.367 219.572C304.098 219.467 303.72 219.361 303.233 219.256C302.771 219.156 302.334 219.024 301.924 218.86C301.52 218.696 301.165 218.497 300.86 218.263C300.556 218.028 300.315 217.75 300.14 217.428C299.97 217.105 299.885 216.736 299.885 216.32C299.885 215.916 299.97 215.535 300.14 215.178C300.315 214.814 300.57 214.495 300.904 214.22C301.244 213.938 301.657 213.719 302.144 213.561C302.63 213.396 303.184 213.314 303.805 213.314C304.66 213.314 305.398 213.446 306.02 213.71C306.641 213.968 307.118 214.331 307.452 214.8C307.792 215.263 307.962 215.799 307.962 216.408H305C305 216.168 304.959 215.963 304.877 215.793C304.801 215.623 304.675 215.494 304.499 215.406C304.323 215.312 304.089 215.266 303.796 215.266C303.591 215.266 303.403 215.304 303.233 215.38C303.069 215.456 302.938 215.562 302.838 215.696C302.738 215.831 302.688 215.989 302.688 216.171C302.688 216.3 302.718 216.417 302.776 216.522C302.841 216.622 302.938 216.716 303.066 216.804C303.195 216.886 303.359 216.962 303.559 217.032C303.758 217.097 303.998 217.155 304.279 217.208C304.918 217.325 305.516 217.492 306.072 217.709C306.629 217.926 307.08 218.233 307.426 218.632C307.777 219.03 307.953 219.566 307.953 220.24C307.953 220.662 307.856 221.052 307.663 221.409C307.47 221.761 307.191 222.071 306.828 222.341C306.465 222.604 306.028 222.81 305.519 222.956C305.009 223.103 304.435 223.176 303.796 223.176C302.888 223.176 302.12 223.015 301.493 222.692C300.866 222.364 300.392 221.954 300.069 221.462C299.753 220.964 299.595 220.46 299.595 219.95H302.354C302.366 220.243 302.437 220.483 302.565 220.671C302.7 220.858 302.879 220.996 303.102 221.084C303.324 221.172 303.582 221.216 303.875 221.216C304.145 221.216 304.367 221.178 304.543 221.102C304.725 221.025 304.862 220.923 304.956 220.794C305.05 220.659 305.097 220.504 305.097 220.328ZM314.571 218.983V210.203H317.647V218.983C317.647 219.839 317.451 220.58 317.059 221.207C316.672 221.834 316.145 222.32 315.477 222.666C314.814 223.006 314.07 223.176 313.244 223.176C312.389 223.176 311.627 223.032 310.959 222.745C310.297 222.458 309.775 222.016 309.395 221.418C309.02 220.82 308.832 220.059 308.832 219.133H311.926C311.926 219.566 311.976 219.906 312.075 220.152C312.175 220.393 312.321 220.562 312.515 220.662C312.714 220.756 312.957 220.803 313.244 220.803C313.525 220.803 313.763 220.732 313.956 220.592C314.155 220.445 314.308 220.237 314.413 219.968C314.519 219.692 314.571 219.364 314.571 218.983ZM326.199 219.599C326.199 219.399 326.17 219.221 326.111 219.062C326.053 218.898 325.944 218.746 325.786 218.605C325.628 218.465 325.399 218.324 325.101 218.184C324.808 218.037 324.421 217.885 323.94 217.727C323.378 217.539 322.836 217.328 322.314 217.094C321.793 216.854 321.327 216.575 320.917 216.259C320.507 215.937 320.182 215.562 319.941 215.134C319.701 214.7 319.581 214.196 319.581 213.622C319.581 213.071 319.704 212.576 319.95 212.137C320.196 211.691 320.539 211.313 320.979 211.003C321.424 210.687 321.945 210.446 322.543 210.282C323.141 210.112 323.794 210.027 324.503 210.027C325.44 210.027 326.267 210.191 326.981 210.52C327.702 210.842 328.265 211.302 328.669 211.899C329.079 212.491 329.284 213.191 329.284 214H326.217C326.217 213.678 326.149 213.394 326.015 213.147C325.886 212.901 325.689 212.708 325.426 212.567C325.162 212.427 324.831 212.356 324.433 212.356C324.046 212.356 323.721 212.415 323.457 212.532C323.193 212.649 322.994 212.808 322.859 213.007C322.725 213.2 322.657 213.414 322.657 213.648C322.657 213.842 322.71 214.018 322.815 214.176C322.927 214.328 323.082 214.472 323.281 214.606C323.486 214.741 323.732 214.87 324.02 214.993C324.312 215.116 324.641 215.236 325.004 215.354C325.684 215.57 326.287 215.813 326.814 216.083C327.348 216.347 327.796 216.648 328.159 216.988C328.528 217.322 328.807 217.703 328.994 218.131C329.188 218.559 329.284 219.042 329.284 219.581C329.284 220.155 329.173 220.665 328.95 221.11C328.728 221.556 328.408 221.934 327.992 222.244C327.576 222.549 327.078 222.78 326.498 222.938C325.918 223.097 325.271 223.176 324.556 223.176C323.899 223.176 323.252 223.094 322.613 222.93C321.98 222.76 321.406 222.502 320.891 222.156C320.375 221.805 319.962 221.356 319.651 220.812C319.347 220.261 319.194 219.607 319.194 218.852H322.288C322.288 219.227 322.338 219.543 322.438 219.801C322.537 220.059 322.684 220.267 322.877 220.425C323.07 220.577 323.308 220.688 323.589 220.759C323.87 220.823 324.192 220.855 324.556 220.855C324.948 220.855 325.265 220.8 325.505 220.688C325.745 220.571 325.921 220.419 326.032 220.231C326.144 220.038 326.199 219.827 326.199 219.599Z" fill="white"/>
<rect x="372" y="196" width="109" height="41" rx="3" fill="#424242"/>
<rect x="372" y="196" width="109" height="41" rx="3" stroke="#424242" stroke-width="4"/>
<path d="M406.118 210.203V223H403.042L398.516 215.037V223H395.431V210.203H398.516L403.042 218.166V210.203H406.118ZM407.56 218.342V218.157C407.56 217.46 407.659 216.818 407.858 216.232C408.058 215.641 408.351 215.128 408.737 214.694C409.124 214.261 409.602 213.924 410.17 213.684C410.738 213.438 411.395 213.314 412.139 213.314C412.889 213.314 413.548 213.438 414.116 213.684C414.69 213.924 415.171 214.261 415.558 214.694C415.944 215.128 416.237 215.641 416.437 216.232C416.636 216.818 416.735 217.46 416.735 218.157V218.342C416.735 219.033 416.636 219.675 416.437 220.267C416.237 220.853 415.944 221.365 415.558 221.805C415.171 222.238 414.693 222.575 414.125 222.815C413.557 223.056 412.9 223.176 412.156 223.176C411.412 223.176 410.753 223.056 410.179 222.815C409.604 222.575 409.124 222.238 408.737 221.805C408.351 221.365 408.058 220.853 407.858 220.267C407.659 219.675 407.56 219.033 407.56 218.342ZM410.521 218.157V218.342C410.521 218.699 410.548 219.033 410.601 219.344C410.653 219.654 410.741 219.927 410.864 220.161C410.987 220.39 411.154 220.568 411.365 220.697C411.576 220.826 411.84 220.891 412.156 220.891C412.467 220.891 412.725 220.826 412.93 220.697C413.141 220.568 413.308 220.39 413.431 220.161C413.554 219.927 413.642 219.654 413.694 219.344C413.747 219.033 413.773 218.699 413.773 218.342V218.157C413.773 217.812 413.747 217.486 413.694 217.182C413.642 216.871 413.554 216.599 413.431 216.364C413.308 216.124 413.141 215.937 412.93 215.802C412.719 215.667 412.455 215.6 412.139 215.6C411.828 215.6 411.567 215.667 411.356 215.802C411.151 215.937 410.987 216.124 410.864 216.364C410.741 216.599 410.653 216.871 410.601 217.182C410.548 217.486 410.521 217.812 410.521 218.157ZM423.521 220.82V209.5H426.5V223H423.828L423.521 220.82ZM417.685 218.359V218.175C417.685 217.454 417.764 216.798 417.922 216.206C418.08 215.608 418.314 215.096 418.625 214.668C418.936 214.234 419.322 213.9 419.785 213.666C420.248 213.432 420.781 213.314 421.385 213.314C421.924 213.314 422.396 213.44 422.8 213.692C423.204 213.938 423.55 214.284 423.837 214.729C424.124 215.175 424.358 215.696 424.54 216.294C424.722 216.886 424.859 217.524 424.953 218.21V218.43C424.859 219.074 424.722 219.684 424.54 220.258C424.358 220.826 424.124 221.33 423.837 221.77C423.55 222.209 423.201 222.555 422.791 222.807C422.387 223.053 421.912 223.176 421.367 223.176C420.764 223.176 420.23 223.056 419.768 222.815C419.311 222.575 418.927 222.238 418.616 221.805C418.312 221.371 418.08 220.861 417.922 220.275C417.764 219.689 417.685 219.051 417.685 218.359ZM420.646 218.175V218.359C420.646 218.717 420.67 219.048 420.717 219.353C420.764 219.657 420.843 219.927 420.954 220.161C421.071 220.39 421.224 220.568 421.411 220.697C421.604 220.826 421.842 220.891 422.123 220.891C422.504 220.891 422.817 220.8 423.063 220.618C423.315 220.437 423.5 220.179 423.617 219.845C423.74 219.511 423.793 219.118 423.775 218.667V217.973C423.787 217.586 423.761 217.246 423.696 216.953C423.632 216.654 423.529 216.405 423.389 216.206C423.254 216.007 423.081 215.857 422.87 215.758C422.665 215.652 422.422 215.6 422.141 215.6C421.865 215.6 421.631 215.664 421.438 215.793C421.25 215.922 421.098 216.104 420.98 216.338C420.863 216.566 420.778 216.839 420.726 217.155C420.673 217.466 420.646 217.806 420.646 218.175ZM432.784 223.176C432.011 223.176 431.319 223.056 430.71 222.815C430.101 222.569 429.585 222.232 429.163 221.805C428.747 221.377 428.428 220.885 428.205 220.328C427.988 219.771 427.88 219.183 427.88 218.562V218.228C427.88 217.53 427.977 216.886 428.17 216.294C428.363 215.696 428.65 215.175 429.031 214.729C429.412 214.284 429.89 213.938 430.464 213.692C431.038 213.44 431.706 213.314 432.468 213.314C433.142 213.314 433.745 213.423 434.278 213.64C434.812 213.856 435.263 214.167 435.632 214.571C436.007 214.976 436.291 215.465 436.484 216.039C436.684 216.613 436.783 217.258 436.783 217.973V219.177H429.014V217.322H433.892V217.094C433.897 216.777 433.842 216.508 433.725 216.285C433.613 216.062 433.449 215.893 433.232 215.775C433.016 215.658 432.752 215.6 432.441 215.6C432.119 215.6 431.853 215.67 431.642 215.811C431.437 215.951 431.275 216.145 431.158 216.391C431.047 216.631 430.968 216.909 430.921 217.226C430.874 217.542 430.851 217.876 430.851 218.228V218.562C430.851 218.913 430.897 219.232 430.991 219.52C431.091 219.807 431.231 220.053 431.413 220.258C431.601 220.457 431.823 220.612 432.081 220.724C432.345 220.835 432.644 220.891 432.978 220.891C433.382 220.891 433.78 220.814 434.173 220.662C434.565 220.51 434.902 220.258 435.184 219.906L436.528 221.506C436.335 221.781 436.06 222.048 435.702 222.306C435.351 222.563 434.929 222.774 434.437 222.938C433.944 223.097 433.394 223.176 432.784 223.176ZM443.217 218.983V210.203H446.293V218.983C446.293 219.839 446.097 220.58 445.704 221.207C445.317 221.834 444.79 222.32 444.122 222.666C443.46 223.006 442.716 223.176 441.89 223.176C441.034 223.176 440.272 223.032 439.604 222.745C438.942 222.458 438.421 222.016 438.04 221.418C437.665 220.82 437.478 220.059 437.478 219.133H440.571C440.571 219.566 440.621 219.906 440.721 220.152C440.82 220.393 440.967 220.562 441.16 220.662C441.359 220.756 441.603 220.803 441.89 220.803C442.171 220.803 442.408 220.732 442.602 220.592C442.801 220.445 442.953 220.237 443.059 219.968C443.164 219.692 443.217 219.364 443.217 218.983ZM454.845 219.599C454.845 219.399 454.815 219.221 454.757 219.062C454.698 218.898 454.59 218.746 454.432 218.605C454.273 218.465 454.045 218.324 453.746 218.184C453.453 218.037 453.066 217.885 452.586 217.727C452.023 217.539 451.481 217.328 450.96 217.094C450.438 216.854 449.973 216.575 449.562 216.259C449.152 215.937 448.827 215.562 448.587 215.134C448.347 214.7 448.227 214.196 448.227 213.622C448.227 213.071 448.35 212.576 448.596 212.137C448.842 211.691 449.185 211.313 449.624 211.003C450.069 210.687 450.591 210.446 451.188 210.282C451.786 210.112 452.439 210.027 453.148 210.027C454.086 210.027 454.912 210.191 455.627 210.52C456.348 210.842 456.91 211.302 457.314 211.899C457.725 212.491 457.93 213.191 457.93 214H454.862C454.862 213.678 454.795 213.394 454.66 213.147C454.531 212.901 454.335 212.708 454.071 212.567C453.808 212.427 453.477 212.356 453.078 212.356C452.691 212.356 452.366 212.415 452.103 212.532C451.839 212.649 451.64 212.808 451.505 213.007C451.37 213.2 451.303 213.414 451.303 213.648C451.303 213.842 451.355 214.018 451.461 214.176C451.572 214.328 451.728 214.472 451.927 214.606C452.132 214.741 452.378 214.87 452.665 214.993C452.958 215.116 453.286 215.236 453.649 215.354C454.329 215.57 454.933 215.813 455.46 216.083C455.993 216.347 456.441 216.648 456.805 216.988C457.174 217.322 457.452 217.703 457.64 218.131C457.833 218.559 457.93 219.042 457.93 219.581C457.93 220.155 457.818 220.665 457.596 221.11C457.373 221.556 457.054 221.934 456.638 222.244C456.222 222.549 455.724 222.78 455.144 222.938C454.563 223.097 453.916 223.176 453.201 223.176C452.545 223.176 451.897 223.094 451.259 222.93C450.626 222.76 450.052 222.502 449.536 222.156C449.021 221.805 448.607 221.356 448.297 220.812C447.992 220.261 447.84 219.607 447.84 218.852H450.934C450.934 219.227 450.983 219.543 451.083 219.801C451.183 220.059 451.329 220.267 451.522 220.425C451.716 220.577 451.953 220.688 452.234 220.759C452.516 220.823 452.838 220.855 453.201 220.855C453.594 220.855 453.91 220.8 454.15 220.688C454.391 220.571 454.566 220.419 454.678 220.231C454.789 220.038 454.845 219.827 454.845 219.599Z" fill="white"/>
<rect x="501" y="196" width="154" height="41" rx="3" fill="#424242"/>
<rect x="501" y="196" width="154" height="41" rx="3" stroke="#424242" stroke-width="4"/>
<path d="M525.644 210.203H528.157L531.014 219.106L533.87 210.203H536.384L532.033 223H529.994L525.644 210.203ZM524.114 210.203H526.716L527.199 220.012V223H524.114V210.203ZM535.312 210.203H537.922V223H534.828V220.012L535.312 210.203ZM544.698 220.609V216.689C544.698 216.42 544.66 216.188 544.584 215.995C544.508 215.802 544.388 215.652 544.224 215.547C544.06 215.436 543.84 215.38 543.564 215.38C543.342 215.38 543.151 215.418 542.993 215.494C542.835 215.57 542.715 215.685 542.633 215.837C542.551 215.989 542.51 216.183 542.51 216.417H539.548C539.548 215.978 539.645 215.57 539.838 215.195C540.037 214.814 540.318 214.483 540.682 214.202C541.051 213.921 541.49 213.704 542 213.552C542.516 213.394 543.09 213.314 543.723 213.314C544.479 213.314 545.152 213.44 545.744 213.692C546.342 213.944 546.813 214.322 547.159 214.826C547.505 215.324 547.678 215.951 547.678 216.707V220.601C547.678 221.222 547.713 221.693 547.783 222.016C547.854 222.332 547.953 222.61 548.082 222.851V223H545.111C544.971 222.707 544.865 222.35 544.795 221.928C544.73 221.5 544.698 221.061 544.698 220.609ZM545.059 217.19L545.076 218.772H543.767C543.491 218.772 543.257 218.811 543.063 218.887C542.876 218.963 542.724 219.068 542.606 219.203C542.495 219.332 542.413 219.479 542.36 219.643C542.313 219.807 542.29 219.979 542.29 220.161C542.29 220.337 542.331 220.495 542.413 220.636C542.501 220.771 542.618 220.876 542.765 220.952C542.911 221.028 543.075 221.066 543.257 221.066C543.585 221.066 543.863 221.005 544.092 220.882C544.326 220.753 544.505 220.598 544.628 220.416C544.751 220.234 544.812 220.064 544.812 219.906L545.463 221.119C545.346 221.354 545.211 221.591 545.059 221.831C544.912 222.071 544.728 222.294 544.505 222.499C544.288 222.698 544.021 222.862 543.705 222.991C543.389 223.114 543.005 223.176 542.554 223.176C541.968 223.176 541.429 223.056 540.937 222.815C540.45 222.575 540.061 222.241 539.768 221.813C539.475 221.38 539.328 220.882 539.328 220.319C539.328 219.827 539.416 219.388 539.592 219.001C539.773 218.614 540.046 218.286 540.409 218.017C540.772 217.747 541.235 217.542 541.798 217.401C542.36 217.261 543.022 217.19 543.784 217.19H545.059ZM552.31 215.318V226.656H549.348V213.49H552.107L552.31 215.318ZM558.146 218.131V218.315C558.146 219.007 558.066 219.648 557.908 220.24C557.75 220.832 557.516 221.348 557.205 221.787C556.895 222.227 556.508 222.569 556.045 222.815C555.588 223.056 555.058 223.176 554.454 223.176C553.886 223.176 553.396 223.05 552.986 222.798C552.576 222.546 552.233 222.197 551.958 221.752C551.683 221.307 551.46 220.797 551.29 220.223C551.12 219.648 550.985 219.042 550.886 218.403V218.166C550.985 217.48 551.12 216.845 551.29 216.259C551.46 215.667 551.683 215.151 551.958 214.712C552.233 214.272 552.573 213.93 552.978 213.684C553.388 213.438 553.877 213.314 554.445 213.314C555.049 213.314 555.579 213.429 556.036 213.657C556.499 213.886 556.886 214.214 557.196 214.642C557.513 215.063 557.75 215.57 557.908 216.162C558.066 216.754 558.146 217.41 558.146 218.131ZM555.184 218.315V218.131C555.184 217.762 555.157 217.425 555.104 217.12C555.052 216.81 554.967 216.54 554.85 216.312C554.738 216.083 554.589 215.907 554.401 215.784C554.214 215.661 553.982 215.6 553.707 215.6C553.391 215.6 553.124 215.649 552.907 215.749C552.696 215.843 552.526 215.989 552.397 216.188C552.274 216.382 552.187 216.625 552.134 216.918C552.087 217.205 552.066 217.542 552.072 217.929V218.649C552.061 219.095 552.104 219.487 552.204 219.827C552.304 220.161 552.477 220.422 552.723 220.609C552.969 220.797 553.303 220.891 553.725 220.891C554.006 220.891 554.24 220.826 554.428 220.697C554.615 220.562 554.765 220.378 554.876 220.144C554.987 219.903 555.066 219.628 555.113 219.317C555.16 219.007 555.184 218.673 555.184 218.315ZM569.308 217.56H566.012L565.994 215.538H568.666C569.146 215.538 569.53 215.485 569.817 215.38C570.104 215.269 570.312 215.107 570.441 214.896C570.576 214.686 570.644 214.422 570.644 214.105C570.644 213.742 570.576 213.449 570.441 213.227C570.307 213.004 570.093 212.843 569.8 212.743C569.513 212.638 569.141 212.585 568.684 212.585H567.172V223H564.087V210.203H568.684C569.475 210.203 570.181 210.276 570.802 210.423C571.423 210.563 571.95 210.78 572.384 211.073C572.823 211.366 573.157 211.735 573.386 212.181C573.614 212.62 573.729 213.139 573.729 213.736C573.729 214.258 573.617 214.747 573.395 215.204C573.172 215.661 572.8 216.033 572.278 216.32C571.763 216.602 571.057 216.748 570.16 216.76L569.308 217.56ZM569.185 223H565.265L566.319 220.627H569.185C569.606 220.627 569.943 220.562 570.195 220.434C570.453 220.299 570.638 220.123 570.749 219.906C570.866 219.684 570.925 219.438 570.925 219.168C570.925 218.84 570.869 218.556 570.758 218.315C570.652 218.075 570.482 217.891 570.248 217.762C570.014 217.627 569.7 217.56 569.308 217.56H566.715L566.732 215.538H569.835L570.556 216.347C571.411 216.312 572.088 216.432 572.586 216.707C573.09 216.982 573.45 217.346 573.667 217.797C573.884 218.248 573.992 218.72 573.992 219.212C573.992 220.05 573.811 220.75 573.447 221.312C573.09 221.875 572.554 222.297 571.839 222.578C571.124 222.859 570.239 223 569.185 223ZM575.196 218.342V218.157C575.196 217.46 575.296 216.818 575.495 216.232C575.694 215.641 575.987 215.128 576.374 214.694C576.761 214.261 577.238 213.924 577.807 213.684C578.375 213.438 579.031 213.314 579.775 213.314C580.525 213.314 581.185 213.438 581.753 213.684C582.327 213.924 582.808 214.261 583.194 214.694C583.581 215.128 583.874 215.641 584.073 216.232C584.272 216.818 584.372 217.46 584.372 218.157V218.342C584.372 219.033 584.272 219.675 584.073 220.267C583.874 220.853 583.581 221.365 583.194 221.805C582.808 222.238 582.33 222.575 581.762 222.815C581.193 223.056 580.537 223.176 579.793 223.176C579.049 223.176 578.39 223.056 577.815 222.815C577.241 222.575 576.761 222.238 576.374 221.805C575.987 221.365 575.694 220.853 575.495 220.267C575.296 219.675 575.196 219.033 575.196 218.342ZM578.158 218.157V218.342C578.158 218.699 578.185 219.033 578.237 219.344C578.29 219.654 578.378 219.927 578.501 220.161C578.624 220.39 578.791 220.568 579.002 220.697C579.213 220.826 579.477 220.891 579.793 220.891C580.104 220.891 580.361 220.826 580.566 220.697C580.777 220.568 580.944 220.39 581.067 220.161C581.19 219.927 581.278 219.654 581.331 219.344C581.384 219.033 581.41 218.699 581.41 218.342V218.157C581.41 217.812 581.384 217.486 581.331 217.182C581.278 216.871 581.19 216.599 581.067 216.364C580.944 216.124 580.777 215.937 580.566 215.802C580.355 215.667 580.092 215.6 579.775 215.6C579.465 215.6 579.204 215.667 578.993 215.802C578.788 215.937 578.624 216.124 578.501 216.364C578.378 216.599 578.29 216.871 578.237 217.182C578.185 217.486 578.158 217.812 578.158 218.157ZM588.011 213.49L589.347 216.109L590.727 213.49H593.803L591.307 218.122L593.935 223H590.832L589.347 220.188L587.87 223H584.768L587.396 218.122L584.908 213.49H588.011ZM605.993 219.599C605.993 219.399 605.964 219.221 605.905 219.062C605.847 218.898 605.738 218.746 605.58 218.605C605.422 218.465 605.193 218.324 604.895 218.184C604.602 218.037 604.215 217.885 603.734 217.727C603.172 217.539 602.63 217.328 602.108 217.094C601.587 216.854 601.121 216.575 600.711 216.259C600.301 215.937 599.976 215.562 599.735 215.134C599.495 214.7 599.375 214.196 599.375 213.622C599.375 213.071 599.498 212.576 599.744 212.137C599.99 211.691 600.333 211.313 600.772 211.003C601.218 210.687 601.739 210.446 602.337 210.282C602.935 210.112 603.588 210.027 604.297 210.027C605.234 210.027 606.061 210.191 606.775 210.52C607.496 210.842 608.059 211.302 608.463 211.899C608.873 212.491 609.078 213.191 609.078 214H606.011C606.011 213.678 605.943 213.394 605.809 213.147C605.68 212.901 605.483 212.708 605.22 212.567C604.956 212.427 604.625 212.356 604.227 212.356C603.84 212.356 603.515 212.415 603.251 212.532C602.987 212.649 602.788 212.808 602.653 213.007C602.519 213.2 602.451 213.414 602.451 213.648C602.451 213.842 602.504 214.018 602.609 214.176C602.721 214.328 602.876 214.472 603.075 214.606C603.28 214.741 603.526 214.87 603.813 214.993C604.106 215.116 604.435 215.236 604.798 215.354C605.478 215.57 606.081 215.813 606.608 216.083C607.142 216.347 607.59 216.648 607.953 216.988C608.322 217.322 608.601 217.703 608.788 218.131C608.981 218.559 609.078 219.042 609.078 219.581C609.078 220.155 608.967 220.665 608.744 221.11C608.521 221.556 608.202 221.934 607.786 222.244C607.37 222.549 606.872 222.78 606.292 222.938C605.712 223.097 605.064 223.176 604.35 223.176C603.693 223.176 603.046 223.094 602.407 222.93C601.774 222.76 601.2 222.502 600.685 222.156C600.169 221.805 599.756 221.356 599.445 220.812C599.141 220.261 598.988 219.607 598.988 218.852H602.082C602.082 219.227 602.132 219.543 602.231 219.801C602.331 220.059 602.478 220.267 602.671 220.425C602.864 220.577 603.102 220.688 603.383 220.759C603.664 220.823 603.986 220.855 604.35 220.855C604.742 220.855 605.059 220.8 605.299 220.688C605.539 220.571 605.715 220.419 605.826 220.231C605.938 220.038 605.993 219.827 605.993 219.599ZM614.826 223H611.987L612.005 220.627H614.826C615.412 220.627 615.907 220.486 616.312 220.205C616.722 219.924 617.032 219.505 617.243 218.948C617.46 218.386 617.568 217.694 617.568 216.874V216.32C617.568 215.705 617.507 215.166 617.384 214.703C617.267 214.234 617.091 213.845 616.856 213.534C616.622 213.218 616.329 212.98 615.978 212.822C615.632 212.664 615.233 212.585 614.782 212.585H611.935V210.203H614.782C615.649 210.203 616.443 210.353 617.164 210.651C617.891 210.944 618.518 211.366 619.045 211.917C619.578 212.462 619.988 213.109 620.275 213.859C620.568 214.604 620.715 215.43 620.715 216.338V216.874C620.715 217.776 620.568 218.603 620.275 219.353C619.988 220.103 619.581 220.75 619.054 221.295C618.526 221.84 617.902 222.262 617.182 222.561C616.467 222.854 615.682 223 614.826 223ZM613.754 210.203V223H610.669V210.203H613.754ZM625.408 210.203V223H622.323V210.203H625.408ZM633.046 210.203L628.089 216.689L625.188 219.862L624.626 217.032L626.48 214.22L629.24 210.203H633.046ZM629.398 223L626.094 217.234L628.493 215.468L633.046 223H629.398Z" fill="white"/>
<rect x="675" y="196" width="131" height="41" rx="3" fill="#424242"/>
<rect x="675" y="196" width="131" height="41" rx="3" stroke="#424242" stroke-width="4"/>
<path d="M704.359 210.203V223H701.274V210.203H704.359ZM708.209 210.203V212.585H697.513V210.203H708.209ZM711.575 221.884L714.036 213.49H717.218L713.395 224.415C713.312 224.655 713.204 224.913 713.069 225.188C712.935 225.47 712.75 225.736 712.516 225.988C712.281 226.24 711.979 226.445 711.61 226.604C711.247 226.762 710.796 226.841 710.257 226.841C709.97 226.841 709.759 226.826 709.624 226.797C709.495 226.773 709.296 226.729 709.026 226.665V224.547C709.103 224.547 709.167 224.547 709.22 224.547C709.278 224.547 709.343 224.547 709.413 224.547C709.729 224.547 709.981 224.515 710.169 224.45C710.362 224.386 710.509 224.292 710.608 224.169C710.714 224.046 710.796 223.896 710.854 223.721L711.575 221.884ZM710.951 213.49L712.823 220.144L713.148 223.281H711.162L707.778 213.49H710.951ZM720.979 215.318V226.656H718.018V213.49H720.777L720.979 215.318ZM726.815 218.131V218.315C726.815 219.007 726.736 219.648 726.578 220.24C726.42 220.832 726.186 221.348 725.875 221.787C725.564 222.227 725.178 222.569 724.715 222.815C724.258 223.056 723.728 223.176 723.124 223.176C722.556 223.176 722.066 223.05 721.656 222.798C721.246 222.546 720.903 222.197 720.628 221.752C720.353 221.307 720.13 220.797 719.96 220.223C719.79 219.648 719.655 219.042 719.556 218.403V218.166C719.655 217.48 719.79 216.845 719.96 216.259C720.13 215.667 720.353 215.151 720.628 214.712C720.903 214.272 721.243 213.93 721.647 213.684C722.058 213.438 722.547 213.314 723.115 213.314C723.719 213.314 724.249 213.429 724.706 213.657C725.169 213.886 725.556 214.214 725.866 214.642C726.183 215.063 726.42 215.57 726.578 216.162C726.736 216.754 726.815 217.41 726.815 218.131ZM723.854 218.315V218.131C723.854 217.762 723.827 217.425 723.774 217.12C723.722 216.81 723.637 216.54 723.52 216.312C723.408 216.083 723.259 215.907 723.071 215.784C722.884 215.661 722.652 215.6 722.377 215.6C722.061 215.6 721.794 215.649 721.577 215.749C721.366 215.843 721.196 215.989 721.067 216.188C720.944 216.382 720.856 216.625 720.804 216.918C720.757 217.205 720.736 217.542 720.742 217.929V218.649C720.73 219.095 720.774 219.487 720.874 219.827C720.974 220.161 721.146 220.422 721.393 220.609C721.639 220.797 721.973 220.891 722.395 220.891C722.676 220.891 722.91 220.826 723.098 220.697C723.285 220.562 723.435 220.378 723.546 220.144C723.657 219.903 723.736 219.628 723.783 219.317C723.83 219.007 723.854 218.673 723.854 218.315ZM732.739 223.176C731.966 223.176 731.274 223.056 730.665 222.815C730.056 222.569 729.54 222.232 729.118 221.805C728.702 221.377 728.383 220.885 728.16 220.328C727.943 219.771 727.835 219.183 727.835 218.562V218.228C727.835 217.53 727.932 216.886 728.125 216.294C728.318 215.696 728.605 215.175 728.986 214.729C729.367 214.284 729.845 213.938 730.419 213.692C730.993 213.44 731.661 213.314 732.423 213.314C733.097 213.314 733.7 213.423 734.233 213.64C734.767 213.856 735.218 214.167 735.587 214.571C735.962 214.976 736.246 215.465 736.439 216.039C736.639 216.613 736.738 217.258 736.738 217.973V219.177H728.969V217.322H733.847V217.094C733.853 216.777 733.797 216.508 733.68 216.285C733.568 216.062 733.404 215.893 733.188 215.775C732.971 215.658 732.707 215.6 732.396 215.6C732.074 215.6 731.808 215.67 731.597 215.811C731.392 215.951 731.23 216.145 731.113 216.391C731.002 216.631 730.923 216.909 730.876 217.226C730.829 217.542 730.806 217.876 730.806 218.228V218.562C730.806 218.913 730.853 219.232 730.946 219.52C731.046 219.807 731.187 220.053 731.368 220.258C731.556 220.457 731.778 220.612 732.036 220.724C732.3 220.835 732.599 220.891 732.933 220.891C733.337 220.891 733.735 220.814 734.128 220.662C734.521 220.51 734.857 220.258 735.139 219.906L736.483 221.506C736.29 221.781 736.015 222.048 735.657 222.306C735.306 222.563 734.884 222.774 734.392 222.938C733.899 223.097 733.349 223.176 732.739 223.176ZM742.926 220.328C742.926 220.164 742.87 220.023 742.759 219.906C742.653 219.783 742.466 219.672 742.196 219.572C741.927 219.467 741.549 219.361 741.062 219.256C740.6 219.156 740.163 219.024 739.753 218.86C739.349 218.696 738.994 218.497 738.689 218.263C738.385 218.028 738.145 217.75 737.969 217.428C737.799 217.105 737.714 216.736 737.714 216.32C737.714 215.916 737.799 215.535 737.969 215.178C738.145 214.814 738.399 214.495 738.733 214.22C739.073 213.938 739.486 213.719 739.973 213.561C740.459 213.396 741.013 213.314 741.634 213.314C742.489 213.314 743.228 213.446 743.849 213.71C744.47 213.968 744.947 214.331 745.281 214.8C745.621 215.263 745.791 215.799 745.791 216.408H742.829C742.829 216.168 742.788 215.963 742.706 215.793C742.63 215.623 742.504 215.494 742.328 215.406C742.152 215.312 741.918 215.266 741.625 215.266C741.42 215.266 741.232 215.304 741.062 215.38C740.898 215.456 740.767 215.562 740.667 215.696C740.567 215.831 740.518 215.989 740.518 216.171C740.518 216.3 740.547 216.417 740.605 216.522C740.67 216.622 740.767 216.716 740.896 216.804C741.024 216.886 741.188 216.962 741.388 217.032C741.587 217.097 741.827 217.155 742.108 217.208C742.747 217.325 743.345 217.492 743.901 217.709C744.458 217.926 744.909 218.233 745.255 218.632C745.606 219.03 745.782 219.566 745.782 220.24C745.782 220.662 745.686 221.052 745.492 221.409C745.299 221.761 745.021 222.071 744.657 222.341C744.294 222.604 743.857 222.81 743.348 222.956C742.838 223.103 742.264 223.176 741.625 223.176C740.717 223.176 739.949 223.015 739.322 222.692C738.695 222.364 738.221 221.954 737.898 221.462C737.582 220.964 737.424 220.46 737.424 219.95H740.184C740.195 220.243 740.266 220.483 740.395 220.671C740.529 220.858 740.708 220.996 740.931 221.084C741.153 221.172 741.411 221.216 741.704 221.216C741.974 221.216 742.196 221.178 742.372 221.102C742.554 221.025 742.691 220.923 742.785 220.794C742.879 220.659 742.926 220.504 742.926 220.328ZM751.188 220.891C751.463 220.891 751.697 220.841 751.891 220.741C752.09 220.636 752.239 220.489 752.339 220.302C752.444 220.108 752.494 219.877 752.488 219.607H755.274C755.28 220.322 755.104 220.949 754.747 221.488C754.396 222.021 753.915 222.438 753.306 222.736C752.702 223.029 752.02 223.176 751.258 223.176C750.514 223.176 749.863 223.056 749.307 222.815C748.75 222.569 748.284 222.229 747.909 221.796C747.54 221.356 747.262 220.844 747.074 220.258C746.893 219.672 746.802 219.036 746.802 218.351V218.148C746.802 217.463 746.893 216.827 747.074 216.241C747.262 215.649 747.54 215.137 747.909 214.703C748.284 214.264 748.747 213.924 749.298 213.684C749.854 213.438 750.502 213.314 751.24 213.314C752.031 213.314 752.729 213.464 753.332 213.763C753.941 214.062 754.419 214.495 754.765 215.063C755.11 215.632 755.28 216.32 755.274 217.129H752.488C752.494 216.842 752.45 216.584 752.356 216.355C752.263 216.127 752.116 215.945 751.917 215.811C751.724 215.67 751.475 215.6 751.17 215.6C750.865 215.6 750.619 215.667 750.432 215.802C750.244 215.937 750.101 216.124 750.001 216.364C749.907 216.599 749.843 216.868 749.808 217.173C749.778 217.478 749.764 217.803 749.764 218.148V218.351C749.764 218.702 749.778 219.033 749.808 219.344C749.843 219.648 749.91 219.918 750.01 220.152C750.109 220.381 750.253 220.562 750.44 220.697C750.628 220.826 750.877 220.891 751.188 220.891ZM759.528 215.846V223H756.566V213.49H759.335L759.528 215.846ZM762.341 213.42L762.288 216.171C762.171 216.159 762.013 216.145 761.813 216.127C761.614 216.109 761.447 216.101 761.312 216.101C760.967 216.101 760.668 216.142 760.416 216.224C760.17 216.3 759.965 216.417 759.801 216.575C759.643 216.728 759.525 216.921 759.449 217.155C759.379 217.39 759.347 217.662 759.353 217.973L758.816 217.621C758.816 216.982 758.878 216.402 759.001 215.881C759.13 215.354 759.312 214.899 759.546 214.519C759.78 214.132 760.064 213.836 760.398 213.631C760.732 213.42 761.107 213.314 761.523 213.314C761.67 213.314 761.813 213.323 761.954 213.341C762.101 213.358 762.229 213.385 762.341 213.42ZM766.489 213.49V223H763.519V213.49H766.489ZM763.343 211.038C763.343 210.616 763.495 210.271 763.8 210.001C764.104 209.731 764.5 209.597 764.986 209.597C765.473 209.597 765.868 209.731 766.173 210.001C766.478 210.271 766.63 210.616 766.63 211.038C766.63 211.46 766.478 211.806 766.173 212.075C765.868 212.345 765.473 212.479 764.986 212.479C764.5 212.479 764.104 212.345 763.8 212.075C763.495 211.806 763.343 211.46 763.343 211.038ZM771.306 215.318V226.656H768.344V213.49H771.104L771.306 215.318ZM777.142 218.131V218.315C777.142 219.007 777.062 219.648 776.904 220.24C776.746 220.832 776.512 221.348 776.201 221.787C775.891 222.227 775.504 222.569 775.041 222.815C774.584 223.056 774.054 223.176 773.45 223.176C772.882 223.176 772.393 223.05 771.982 222.798C771.572 222.546 771.229 222.197 770.954 221.752C770.679 221.307 770.456 220.797 770.286 220.223C770.116 219.648 769.981 219.042 769.882 218.403V218.166C769.981 217.48 770.116 216.845 770.286 216.259C770.456 215.667 770.679 215.151 770.954 214.712C771.229 214.272 771.569 213.93 771.974 213.684C772.384 213.438 772.873 213.314 773.441 213.314C774.045 213.314 774.575 213.429 775.032 213.657C775.495 213.886 775.882 214.214 776.192 214.642C776.509 215.063 776.746 215.57 776.904 216.162C777.062 216.754 777.142 217.41 777.142 218.131ZM774.18 218.315V218.131C774.18 217.762 774.153 217.425 774.101 217.12C774.048 216.81 773.963 216.54 773.846 216.312C773.734 216.083 773.585 215.907 773.397 215.784C773.21 215.661 772.979 215.6 772.703 215.6C772.387 215.6 772.12 215.649 771.903 215.749C771.692 215.843 771.522 215.989 771.394 216.188C771.271 216.382 771.183 216.625 771.13 216.918C771.083 217.205 771.062 217.542 771.068 217.929V218.649C771.057 219.095 771.101 219.487 771.2 219.827C771.3 220.161 771.473 220.422 771.719 220.609C771.965 220.797 772.299 220.891 772.721 220.891C773.002 220.891 773.236 220.826 773.424 220.697C773.611 220.562 773.761 220.378 773.872 220.144C773.983 219.903 774.062 219.628 774.109 219.317C774.156 219.007 774.18 218.673 774.18 218.315ZM783.47 213.49V215.547H777.739V213.49H783.47ZM778.943 211.126H781.905V219.897C781.905 220.149 781.935 220.346 781.993 220.486C782.052 220.621 782.151 220.718 782.292 220.776C782.438 220.829 782.632 220.855 782.872 220.855C783.042 220.855 783.183 220.853 783.294 220.847C783.405 220.835 783.511 220.82 783.61 220.803V222.921C783.358 223.003 783.095 223.064 782.819 223.105C782.544 223.152 782.251 223.176 781.94 223.176C781.308 223.176 780.766 223.076 780.314 222.877C779.869 222.678 779.529 222.364 779.295 221.937C779.061 221.509 778.943 220.952 778.943 220.267V211.126Z" fill="white"/>
<path d="M1066 0H1348C1356.28 0 1363 6.71573 1363 15V282C1363 290.284 1356.28 297 1348 297H1066V0Z" fill="white"/>
<g filter="url(#filter0_dd_3_61)">
<mask id="path-17-outside-1_3_61" maskUnits="userSpaceOnUse" x="1164.79" y="70.25" width="55" height="105" fill="black">
<rect fill="white" x="1164.79" y="70.25" width="55" height="105"/>
<path d="M1214.11 87.346V87.2816L1214.1 86.9597C1214.01 85.281 1213.67 83.6244 1213.11 82.0416C1212.71 80.8435 1212.03 79.7605 1211.12 78.8873C1210.16 78.0593 1208.93 77.6304 1207.67 77.69C1203.59 77.6713 1199.62 78.9871 1196.36 81.4365C1193.37 83.7604 1191.56 86.9082 1191.56 90.5646C1191.56 91.0744 1191.44 91.5767 1191.21 92.0303C1190.98 92.4839 1190.64 92.8758 1190.23 93.1738C1189.81 93.4717 1189.33 93.6672 1188.83 93.744C1188.32 93.8209 1187.81 93.777 1187.32 93.6159C1186.11 93.2168 1185.03 93.4421 1183.88 94.3691C1182.62 95.3991 1181.38 97.2273 1180.5 99.6928C1178.7 104.727 1178.89 110.823 1181.36 114.531C1181.71 115.059 1181.9 115.679 1181.9 116.314H1186.73C1190.58 116.314 1194.26 117.84 1196.98 120.556C1199.7 123.273 1201.23 126.957 1201.23 130.798V132.954C1203.38 133.714 1205.19 135.208 1206.34 137.172C1207.49 139.137 1207.92 141.446 1207.53 143.691C1207.15 145.936 1205.98 147.973 1204.23 149.441C1202.49 150.909 1200.29 151.714 1198.01 151.714C1195.73 151.714 1193.52 150.909 1191.78 149.441C1190.03 147.973 1188.87 145.936 1188.48 143.691C1188.1 141.446 1188.52 139.137 1189.67 137.172C1190.82 135.208 1192.64 133.714 1194.78 132.954V130.798C1194.78 126.356 1191.18 122.751 1186.73 122.751H1175.46C1175.07 122.751 1174.69 122.681 1174.33 122.545L1174.31 122.584C1173.04 125.127 1172.24 129.35 1172.24 135.626C1172.24 141.156 1174.27 144.271 1176.35 146.054C1178.58 147.973 1181.06 148.501 1181.9 148.501C1182.75 148.501 1183.57 148.84 1184.18 149.443C1184.78 150.047 1185.12 150.866 1185.12 151.719C1185.12 154.088 1186.41 158.227 1189.24 161.781C1192.01 165.225 1195.98 167.813 1201.23 167.813C1204.84 167.813 1208.07 165.798 1210.57 163.178C1211.8 161.89 1212.76 160.558 1213.38 159.463C1213.67 158.978 1213.91 158.47 1214.11 157.944V106.658H1207.12C1206.36 108.806 1204.87 110.615 1202.9 111.768C1200.93 112.921 1198.62 113.341 1196.38 112.956C1194.13 112.571 1192.09 111.405 1190.62 109.663C1189.15 107.922 1188.35 105.717 1188.35 103.439C1188.35 101.161 1189.15 98.957 1190.62 97.2155C1192.09 95.474 1194.13 94.3075 1196.38 93.9224C1198.62 93.5372 1200.93 93.958 1202.9 95.1106C1204.87 96.2631 1206.36 98.0731 1207.12 100.221H1214.11V87.346ZM1194.78 103.439C1194.78 104.293 1195.12 105.112 1195.73 105.715C1196.33 106.319 1197.15 106.658 1198.01 106.658C1198.86 106.658 1199.68 106.319 1200.28 105.715C1200.89 105.112 1201.23 104.293 1201.23 103.439C1201.23 102.586 1200.89 101.767 1200.28 101.163C1199.68 100.56 1198.86 100.221 1198.01 100.221C1197.15 100.221 1196.33 100.56 1195.73 101.163C1195.12 101.767 1194.78 102.586 1194.78 103.439ZM1198.01 138.845C1197.15 138.845 1196.33 139.184 1195.73 139.787C1195.12 140.391 1194.78 141.21 1194.78 142.063C1194.78 142.917 1195.12 143.736 1195.73 144.339C1196.33 144.943 1197.15 145.282 1198.01 145.282C1198.86 145.282 1199.68 144.943 1200.28 144.339C1200.89 143.736 1201.23 142.917 1201.23 142.063C1201.23 141.21 1200.89 140.391 1200.28 139.787C1199.68 139.184 1198.86 138.845 1198.01 138.845Z"/>
</mask>
<path d="M1214.11 87.346V87.2816L1214.1 86.9597C1214.01 85.281 1213.67 83.6244 1213.11 82.0416C1212.71 80.8435 1212.03 79.7605 1211.12 78.8873C1210.16 78.0593 1208.93 77.6304 1207.67 77.69C1203.59 77.6713 1199.62 78.9871 1196.36 81.4365C1193.37 83.7604 1191.56 86.9082 1191.56 90.5646C1191.56 91.0744 1191.44 91.5767 1191.21 92.0303C1190.98 92.4839 1190.64 92.8758 1190.23 93.1738C1189.81 93.4717 1189.33 93.6672 1188.83 93.744C1188.32 93.8209 1187.81 93.777 1187.32 93.6159C1186.11 93.2168 1185.03 93.4421 1183.88 94.3691C1182.62 95.3991 1181.38 97.2273 1180.5 99.6928C1178.7 104.727 1178.89 110.823 1181.36 114.531C1181.71 115.059 1181.9 115.679 1181.9 116.314H1186.73C1190.58 116.314 1194.26 117.84 1196.98 120.556C1199.7 123.273 1201.23 126.957 1201.23 130.798V132.954C1203.38 133.714 1205.19 135.208 1206.34 137.172C1207.49 139.137 1207.92 141.446 1207.53 143.691C1207.15 145.936 1205.98 147.973 1204.23 149.441C1202.49 150.909 1200.29 151.714 1198.01 151.714C1195.73 151.714 1193.52 150.909 1191.78 149.441C1190.03 147.973 1188.87 145.936 1188.48 143.691C1188.1 141.446 1188.52 139.137 1189.67 137.172C1190.82 135.208 1192.64 133.714 1194.78 132.954V130.798C1194.78 126.356 1191.18 122.751 1186.73 122.751H1175.46C1175.07 122.751 1174.69 122.681 1174.33 122.545L1174.31 122.584C1173.04 125.127 1172.24 129.35 1172.24 135.626C1172.24 141.156 1174.27 144.271 1176.35 146.054C1178.58 147.973 1181.06 148.501 1181.9 148.501C1182.75 148.501 1183.57 148.84 1184.18 149.443C1184.78 150.047 1185.12 150.866 1185.12 151.719C1185.12 154.088 1186.41 158.227 1189.24 161.781C1192.01 165.225 1195.98 167.813 1201.23 167.813C1204.84 167.813 1208.07 165.798 1210.57 163.178C1211.8 161.89 1212.76 160.558 1213.38 159.463C1213.67 158.978 1213.91 158.47 1214.11 157.944V106.658H1207.12C1206.36 108.806 1204.87 110.615 1202.9 111.768C1200.93 112.921 1198.62 113.341 1196.38 112.956C1194.13 112.571 1192.09 111.405 1190.62 109.663C1189.15 107.922 1188.35 105.717 1188.35 103.439C1188.35 101.161 1189.15 98.957 1190.62 97.2155C1192.09 95.474 1194.13 94.3075 1196.38 93.9224C1198.62 93.5372 1200.93 93.958 1202.9 95.1106C1204.87 96.2631 1206.36 98.0731 1207.12 100.221H1214.11V87.346ZM1194.78 103.439C1194.78 104.293 1195.12 105.112 1195.73 105.715C1196.33 106.319 1197.15 106.658 1198.01 106.658C1198.86 106.658 1199.68 106.319 1200.28 105.715C1200.89 105.112 1201.23 104.293 1201.23 103.439C1201.23 102.586 1200.89 101.767 1200.28 101.163C1199.68 100.56 1198.86 100.221 1198.01 100.221C1197.15 100.221 1196.33 100.56 1195.73 101.163C1195.12 101.767 1194.78 102.586 1194.78 103.439ZM1198.01 138.845C1197.15 138.845 1196.33 139.184 1195.73 139.787C1195.12 140.391 1194.78 141.21 1194.78 142.063C1194.78 142.917 1195.12 143.736 1195.73 144.339C1196.33 144.943 1197.15 145.282 1198.01 145.282C1198.86 145.282 1199.68 144.943 1200.28 144.339C1200.89 143.736 1201.23 142.917 1201.23 142.063C1201.23 141.21 1200.89 140.391 1200.28 139.787C1199.68 139.184 1198.86 138.845 1198.01 138.845Z" fill="#00B7EB"/>
<path d="M1192.4 76.3574L1192.1 75.959L1192.09 75.9625L1192.4 76.3574ZM1207.67 71.2526L1207.67 71.7528L1207.68 71.7525L1207.67 71.2526ZM1218.25 164.764C1218.42 164.542 1218.37 164.229 1218.15 164.064C1217.93 163.899 1217.61 163.945 1217.45 164.166L1218.25 164.764ZM1215.79 166.782L1215.43 166.436L1215.43 166.437L1215.79 166.782ZM1184.22 165.798L1184.61 165.486L1184.61 165.484L1184.22 165.798ZM1178.94 154.52L1179.43 154.422L1179.37 154.117L1179.07 154.037L1178.94 154.52ZM1172.15 150.947L1171.83 151.327L1171.83 151.327L1172.15 150.947ZM1168.55 119.7L1169 119.924L1169 119.912L1168.55 119.7ZM1172.66 114.84L1172.39 114.418L1172.38 114.423L1172.38 114.429L1172.66 114.84ZM1174.03 114.08L1174.24 114.531L1174.64 114.339L1174.5 113.919L1174.03 114.08ZM1174.44 97.5298L1174.91 97.6985L1174.91 97.6975L1174.44 97.5298ZM1179.82 89.3737L1180.13 89.7621L1180.13 89.7617L1179.82 89.3737ZM1185.49 87.0177L1185.53 87.5161L1185.9 87.4866L1185.98 87.1209L1185.49 87.0177ZM1192.7 76.7559C1197.01 73.4931 1202.27 71.735 1207.67 71.7526L1207.67 70.7526C1202.05 70.7343 1196.58 72.5637 1192.1 75.959L1192.7 76.7559ZM1207.68 71.7525C1209.5 71.7134 1211.3 72.1327 1212.91 72.9715L1213.37 72.0841C1211.61 71.1679 1209.65 70.7101 1207.66 70.7527L1207.68 71.7525ZM1212.91 72.9715C1213.69 73.3744 1214.72 74.226 1215.71 75.2011C1216.69 76.17 1217.58 77.2152 1218.08 77.9684L1218.92 77.4115C1218.36 76.5845 1217.42 75.4874 1216.41 74.4897C1215.41 73.4981 1214.29 72.5587 1213.37 72.0841L1212.91 72.9715ZM1217.45 164.166C1216.82 165.005 1216.19 165.647 1215.43 166.436L1216.15 167.129C1216.89 166.356 1217.58 165.664 1218.25 164.764L1217.45 164.166ZM1215.43 166.437C1212.32 169.696 1207.08 173.75 1201.23 173.75V174.75C1207.5 174.75 1213 170.435 1216.15 167.128L1215.43 166.437ZM1201.23 173.75C1193.77 173.75 1188.22 169.999 1184.61 165.486L1183.83 166.11C1187.58 170.802 1193.4 174.75 1201.23 174.75V173.75ZM1184.61 165.484C1182.02 162.267 1180.24 158.472 1179.43 154.422L1178.45 154.617C1179.29 158.826 1181.14 162.769 1183.83 166.111L1184.61 165.484ZM1179.07 154.037C1176.64 153.385 1174.39 152.199 1172.48 150.567L1171.83 151.327C1173.85 153.057 1176.24 154.312 1178.81 155.002L1179.07 154.037ZM1172.48 150.567C1169.04 147.62 1166.29 142.823 1166.29 135.626H1165.29C1165.29 143.106 1168.16 148.184 1171.83 151.327L1172.48 150.567ZM1166.29 135.626C1166.29 129.053 1167.11 123.707 1169 119.924L1168.1 119.476C1166.11 123.469 1165.29 129.002 1165.29 135.626H1166.29ZM1169 119.912C1169.88 118.038 1171.24 116.43 1172.95 115.251L1172.38 114.429C1170.53 115.708 1169.05 117.454 1168.1 119.488L1169 119.912ZM1172.93 115.261C1173.35 114.992 1173.79 114.748 1174.24 114.531L1173.81 113.629C1173.32 113.863 1172.85 114.127 1172.39 114.418L1172.93 115.261ZM1174.5 113.919C1172.71 108.69 1173.18 102.538 1174.91 97.6985L1173.97 97.3611C1172.17 102.37 1171.68 108.759 1173.55 114.242L1174.5 113.919ZM1174.91 97.6975C1176.02 94.5857 1177.77 91.6821 1180.13 89.7621L1179.5 88.9854C1176.95 91.0565 1175.12 94.1396 1173.97 97.3621L1174.91 97.6975ZM1180.13 89.7617C1181.69 88.4967 1183.53 87.6744 1185.53 87.5161L1185.45 86.5192C1183.22 86.6957 1181.19 87.6114 1179.5 88.9857L1180.13 89.7617ZM1185.98 87.1209C1186.88 82.8586 1189.4 79.3189 1192.71 76.7523L1192.09 75.9625C1188.64 78.6489 1185.96 82.3833 1185 86.9144L1185.98 87.1209ZM1214.11 87.2816H1215.11V87.2616L1215.11 87.2416L1214.11 87.2816ZM1214.1 86.9597L1215.1 86.9197L1215.1 86.9056L1214.1 86.9597ZM1213.11 82.0416L1212.16 82.3553L1212.16 82.3671L1212.17 82.3788L1213.11 82.0416ZM1211.12 78.8873L1211.81 78.1652L1211.79 78.1486L1211.77 78.1329L1211.12 78.8873ZM1207.67 77.69L1207.67 78.6899L1207.69 78.6901L1207.72 78.6888L1207.67 77.69ZM1196.36 81.4365L1195.76 80.637L1195.75 80.6419L1195.74 80.647L1196.36 81.4365ZM1191.56 90.5646L1192.56 90.5654V90.5646H1191.56ZM1187.32 93.6159L1187.64 92.6671L1187.64 92.6662L1187.32 93.6159ZM1183.88 94.3691L1183.25 93.5897L1183.25 93.5942L1183.88 94.3691ZM1180.5 99.6928L1179.56 99.3557L1179.56 99.3565L1180.5 99.6928ZM1181.36 114.531L1180.53 115.085L1180.53 115.086L1181.36 114.531ZM1181.9 116.314L1180.9 116.315L1180.9 117.314H1181.9V116.314ZM1201.23 130.798H1202.23H1201.23ZM1201.23 132.954H1200.23V133.662L1200.89 133.897L1201.23 132.954ZM1194.78 132.954L1195.12 133.897L1195.78 133.662V132.954H1194.78ZM1175.46 122.751L1175.46 123.751H1175.46V122.751ZM1174.33 122.545L1174.68 121.609L1173.84 121.292L1173.44 122.098L1174.33 122.545ZM1174.31 122.584L1175.2 123.032L1175.21 123.031L1174.31 122.584ZM1176.35 146.054L1177 145.296L1177 145.295L1176.35 146.054ZM1189.24 161.781L1188.46 162.404L1188.46 162.407L1189.24 161.781ZM1210.57 163.178L1209.85 162.487L1209.85 162.487L1210.57 163.178ZM1213.38 159.463L1212.52 158.959L1212.52 158.968L1213.38 159.463ZM1214.11 157.944L1215.05 158.301L1215.11 158.129V157.944H1214.11ZM1214.11 106.658H1215.11V105.658H1214.11V106.658ZM1207.12 106.658V105.658H1206.42L1206.18 106.324L1207.12 106.658ZM1188.35 103.439H1189.35H1188.35ZM1207.12 100.221L1206.18 100.554L1206.42 101.221H1207.12V100.221ZM1214.11 100.221V101.221H1215.11V100.221H1214.11ZM1215.11 87.346V87.2816H1213.11V87.346H1215.11ZM1215.11 87.2416L1215.1 86.9197L1213.1 86.9997L1213.11 87.3216L1215.11 87.2416ZM1215.1 86.9056C1215 85.1303 1214.65 83.3783 1214.05 81.7043L1212.17 82.3788C1212.7 83.8705 1213.01 85.4318 1213.1 87.0138L1215.1 86.9056ZM1214.06 81.7279C1213.61 80.3746 1212.84 79.1514 1211.81 78.1652L1210.42 79.6094C1211.22 80.3696 1211.81 81.3124 1212.16 82.3553L1214.06 81.7279ZM1211.77 78.1329C1210.63 77.1358 1209.14 76.6194 1207.62 76.6911L1207.72 78.6888C1208.72 78.6414 1209.7 78.9829 1210.46 79.6417L1211.77 78.1329ZM1207.67 76.69C1203.38 76.6703 1199.19 78.0565 1195.76 80.637L1196.96 82.236C1200.04 79.9177 1203.8 78.6723 1207.67 78.6899L1207.67 76.69ZM1195.74 80.647C1192.56 83.1242 1190.56 86.5452 1190.56 90.5646H1192.56C1192.56 87.2713 1194.18 84.3965 1196.97 82.226L1195.74 80.647ZM1190.56 90.5639C1190.56 90.9151 1190.48 91.2613 1190.32 91.5739L1192.1 92.4867C1192.4 91.8921 1192.56 91.2336 1192.56 90.5654L1190.56 90.5639ZM1190.32 91.5739C1190.16 91.8865 1189.93 92.1567 1189.64 92.3622L1190.81 93.9854C1191.35 93.595 1191.79 93.0813 1192.1 92.4867L1190.32 91.5739ZM1189.64 92.3622C1189.36 92.5676 1189.03 92.7024 1188.68 92.7555L1188.98 94.7326C1189.64 94.6319 1190.27 94.3758 1190.81 93.9854L1189.64 92.3622ZM1188.68 92.7555C1188.33 92.8085 1187.97 92.7782 1187.64 92.6671L1187.01 94.5648C1187.64 94.7758 1188.32 94.8333 1188.98 94.7326L1188.68 92.7555ZM1187.64 92.6662C1186.89 92.4189 1186.13 92.3528 1185.37 92.5178C1184.61 92.681 1183.92 93.0561 1183.25 93.5897L1184.5 95.1485C1184.99 94.7551 1185.41 94.5541 1185.79 94.4727C1186.16 94.393 1186.55 94.4139 1187.01 94.5657L1187.64 92.6662ZM1183.25 93.5942C1181.8 94.7739 1180.48 96.7791 1179.56 99.3557L1181.44 100.03C1182.29 97.6754 1183.43 96.0242 1184.51 95.144L1183.25 93.5942ZM1179.56 99.3565C1177.7 104.579 1177.83 111.031 1180.53 115.085L1182.19 113.977C1179.95 110.615 1179.71 104.874 1181.44 100.029L1179.56 99.3565ZM1180.53 115.086C1180.77 115.45 1180.9 115.877 1180.9 116.315L1182.9 116.313C1182.9 115.481 1182.65 114.668 1182.19 113.976L1180.53 115.086ZM1181.9 117.314H1186.73V115.314H1181.9V117.314ZM1186.73 117.314C1190.31 117.314 1193.74 118.735 1196.27 121.264L1197.69 119.849C1194.78 116.945 1190.84 115.314 1186.73 115.314V117.314ZM1196.27 121.264C1198.81 123.792 1200.23 127.222 1200.23 130.798H1202.23C1202.23 126.691 1200.59 122.753 1197.69 119.849L1196.27 121.264ZM1200.23 130.798V132.954H1202.23V130.798H1200.23ZM1200.89 133.897C1202.82 134.578 1204.45 135.918 1205.48 137.679L1207.2 136.666C1205.93 134.498 1203.93 132.849 1201.56 132.012L1200.89 133.897ZM1205.48 137.679C1206.51 139.44 1206.89 141.51 1206.54 143.522L1208.52 143.86C1208.94 141.383 1208.48 138.834 1207.2 136.666L1205.48 137.679ZM1206.54 143.522C1206.2 145.534 1205.15 147.36 1203.59 148.676L1204.88 150.206C1206.8 148.586 1208.09 146.338 1208.52 143.86L1206.54 143.522ZM1203.59 148.676C1202.03 149.992 1200.05 150.714 1198.01 150.714V152.714C1200.52 152.714 1202.96 151.826 1204.88 150.206L1203.59 148.676ZM1198.01 150.714C1195.96 150.714 1193.98 149.992 1192.42 148.676L1191.13 150.206C1193.06 151.826 1195.49 152.714 1198.01 152.714V150.714ZM1192.42 148.676C1190.86 147.36 1189.81 145.534 1189.47 143.522L1187.5 143.86C1187.92 146.338 1189.21 148.586 1191.13 150.206L1192.42 148.676ZM1189.47 143.522C1189.12 141.51 1189.5 139.44 1190.53 137.679L1188.81 136.666C1187.54 138.834 1187.07 141.383 1187.5 143.86L1189.47 143.522ZM1190.53 137.679C1191.57 135.918 1193.19 134.578 1195.12 133.897L1194.45 132.012C1192.08 132.849 1190.08 134.498 1188.81 136.666L1190.53 137.679ZM1195.78 132.954V130.798H1193.78V132.954H1195.78ZM1195.78 130.798C1195.78 125.803 1191.73 121.751 1186.73 121.751V123.751C1190.63 123.751 1193.78 126.909 1193.78 130.798H1195.78ZM1186.73 121.751H1175.46V123.751H1186.73V121.751ZM1175.46 121.751C1175.19 121.751 1174.93 121.703 1174.68 121.609L1173.98 123.481C1174.45 123.659 1174.95 123.75 1175.46 123.751L1175.46 121.751ZM1173.44 122.098L1173.42 122.136L1175.21 123.031L1175.22 122.993L1173.44 122.098ZM1173.42 122.136C1172.04 124.888 1171.24 129.3 1171.24 135.626H1173.24C1173.24 129.4 1174.03 125.365 1175.2 123.032L1173.42 122.136ZM1171.24 135.626C1171.24 141.439 1173.39 144.835 1175.7 146.814L1177 145.295C1175.14 143.707 1173.24 140.872 1173.24 135.626H1171.24ZM1175.7 146.813C1178.11 148.887 1180.82 149.501 1181.9 149.501V147.501C1181.3 147.501 1179.05 147.058 1177 145.296L1175.7 146.813ZM1181.9 149.501C1182.49 149.501 1183.05 149.735 1183.47 150.151L1184.88 148.736C1184.09 147.945 1183.02 147.501 1181.9 147.501V149.501ZM1183.47 150.151C1183.89 150.567 1184.12 151.131 1184.12 151.719H1186.12C1186.12 150.6 1185.68 149.527 1184.88 148.736L1183.47 150.151ZM1184.12 151.719C1184.12 154.352 1185.51 158.705 1188.46 162.404L1190.03 161.157C1187.31 157.75 1186.12 153.824 1186.12 151.719H1184.12ZM1188.46 162.407C1191.37 166.029 1195.61 168.813 1201.23 168.813V166.813C1196.35 166.813 1192.64 164.421 1190.02 161.155L1188.46 162.407ZM1201.23 168.813C1205.22 168.813 1208.69 166.592 1211.29 163.868L1209.85 162.487C1207.44 165.004 1204.45 166.813 1201.23 166.813V168.813ZM1211.29 163.869C1212.58 162.524 1213.59 161.126 1214.25 159.959L1212.52 158.968C1211.93 159.99 1211.02 161.257 1209.85 162.487L1211.29 163.869ZM1214.25 159.968C1214.56 159.435 1214.83 158.878 1215.05 158.301L1213.18 157.587C1213 158.062 1212.78 158.52 1212.52 158.959L1214.25 159.968ZM1215.11 157.944V106.658H1213.11V157.944H1215.11ZM1214.11 105.658H1207.12V107.658H1214.11V105.658ZM1206.18 106.324C1205.5 108.249 1204.16 109.872 1202.4 110.905L1203.41 112.631C1205.58 111.359 1207.23 109.362 1208.06 106.992L1206.18 106.324ZM1202.4 110.905C1200.63 111.939 1198.56 112.316 1196.55 111.971L1196.21 113.942C1198.69 114.367 1201.24 113.902 1203.41 112.631L1202.4 110.905ZM1196.55 111.971C1194.53 111.625 1192.7 110.579 1191.39 109.018L1189.86 110.308C1191.48 112.23 1193.73 113.517 1196.21 113.942L1196.55 111.971ZM1191.39 109.018C1190.07 107.457 1189.35 105.481 1189.35 103.439H1187.35C1187.35 105.953 1188.24 108.386 1189.86 110.308L1191.39 109.018ZM1189.35 103.439C1189.35 101.398 1190.07 99.4215 1191.39 97.8603L1189.86 96.5706C1188.24 98.4925 1187.35 100.925 1187.35 103.439H1189.35ZM1191.39 97.8603C1192.7 96.2991 1194.53 95.2533 1196.55 94.908L1196.21 92.9367C1193.73 93.3617 1191.48 94.6488 1189.86 96.5706L1191.39 97.8603ZM1196.55 94.908C1198.56 94.5626 1200.63 94.94 1202.4 95.9733L1203.41 94.2479C1201.24 92.9761 1198.69 92.5117 1196.21 92.9367L1196.55 94.908ZM1202.4 95.9733C1204.16 97.0066 1205.5 98.6292 1206.18 100.554L1208.06 99.8871C1207.23 97.517 1205.58 95.5196 1203.41 94.2479L1202.4 95.9733ZM1207.12 101.221H1214.11V99.2206H1207.12V101.221ZM1215.11 100.221V87.346H1213.11V100.221H1215.11ZM1193.78 103.439C1193.78 104.558 1194.23 105.632 1195.02 106.423L1196.44 105.008C1196.02 104.592 1195.78 104.027 1195.78 103.439H1193.78ZM1195.02 106.423C1195.81 107.214 1196.89 107.658 1198.01 107.658V105.658C1197.42 105.658 1196.85 105.424 1196.44 105.008L1195.02 106.423ZM1198.01 107.658C1199.13 107.658 1200.2 107.214 1200.99 106.423L1199.58 105.008C1199.16 105.424 1198.6 105.658 1198.01 105.658V107.658ZM1200.99 106.423C1201.78 105.632 1202.23 104.558 1202.23 103.439H1200.23C1200.23 104.027 1199.99 104.592 1199.58 105.008L1200.99 106.423ZM1202.23 103.439C1202.23 102.32 1201.78 101.247 1200.99 100.456L1199.58 101.871C1199.99 102.287 1200.23 102.851 1200.23 103.439H1202.23ZM1200.99 100.456C1200.2 99.6649 1199.13 99.2206 1198.01 99.2206V101.221C1198.6 101.221 1199.16 101.455 1199.58 101.871L1200.99 100.456ZM1198.01 99.2206C1196.89 99.2206 1195.81 99.6649 1195.02 100.456L1196.44 101.871C1196.85 101.455 1197.42 101.221 1198.01 101.221V99.2206ZM1195.02 100.456C1194.23 101.247 1193.78 102.32 1193.78 103.439H1195.78C1195.78 102.851 1196.02 102.287 1196.44 101.871L1195.02 100.456ZM1198.01 137.845C1196.89 137.845 1195.81 138.289 1195.02 139.08L1196.44 140.495C1196.85 140.079 1197.42 139.845 1198.01 139.845V137.845ZM1195.02 139.08C1194.23 139.871 1193.78 140.944 1193.78 142.063H1195.78C1195.78 141.475 1196.02 140.911 1196.44 140.495L1195.02 139.08ZM1193.78 142.063C1193.78 143.182 1194.23 144.256 1195.02 145.047L1196.44 143.632C1196.02 143.216 1195.78 142.651 1195.78 142.063H1193.78ZM1195.02 145.047C1195.81 145.838 1196.89 146.282 1198.01 146.282V144.282C1197.42 144.282 1196.85 144.048 1196.44 143.632L1195.02 145.047ZM1198.01 146.282C1199.13 146.282 1200.2 145.838 1200.99 145.047L1199.58 143.632C1199.16 144.048 1198.6 144.282 1198.01 144.282V146.282ZM1200.99 145.047C1201.78 144.256 1202.23 143.182 1202.23 142.063H1200.23C1200.23 142.651 1199.99 143.216 1199.58 143.632L1200.99 145.047ZM1202.23 142.063C1202.23 140.944 1201.78 139.871 1200.99 139.08L1199.58 140.495C1199.99 140.911 1200.23 141.475 1200.23 142.063H1202.23ZM1200.99 139.08C1200.2 138.289 1199.13 137.845 1198.01 137.845V139.845C1198.6 139.845 1199.16 140.079 1199.58 140.495L1200.99 139.08Z" fill="#020202" mask="url(#path-17-outside-1_3_61)"/>
</g>
<path fill-rule="evenodd" clip-rule="evenodd" d="M1217.33 165.493L1219.31 163.985C1220.06 164.004 1220.8 164.004 1221.54 163.985L1231.15 171.328C1231.65 171.713 1232.24 171.98 1232.88 172.106C1233.51 172.233 1234.16 172.216 1234.79 172.057C1239.52 170.853 1244.07 169.052 1248.32 166.702C1248.87 166.394 1249.34 165.967 1249.69 165.454C1250.05 164.941 1250.27 164.357 1250.34 163.748L1251.7 152.074C1252.24 151.588 1252.75 151.096 1253.25 150.597L1265.5 149.219C1266.14 149.148 1266.75 148.936 1267.29 148.599C1267.83 148.263 1268.28 147.811 1268.6 147.28C1271.05 143.228 1272.94 138.884 1274.2 134.36C1274.37 133.764 1274.38 133.139 1274.25 132.535C1274.12 131.932 1273.84 131.366 1273.43 130.885L1265.78 121.735C1265.8 121.027 1265.8 120.318 1265.78 119.609L1273.47 110.435C1273.88 109.953 1274.15 109.388 1274.29 108.784C1274.42 108.18 1274.4 107.556 1274.24 106.96C1272.97 102.435 1271.09 98.0898 1268.63 94.0399C1268.31 93.5099 1267.86 93.059 1267.32 92.7232C1266.78 92.3874 1266.17 92.1759 1265.54 92.1056L1253.31 90.8062C1252.8 90.2943 1252.29 89.8021 1251.76 89.3296L1250.32 77.6254C1250.25 77.0161 1250.02 76.4319 1249.67 75.9191C1249.32 75.4064 1248.85 74.9795 1248.29 74.6723C1244.05 72.3262 1239.5 70.5272 1234.76 69.3222C1234.14 69.1637 1233.48 69.1475 1232.85 69.2749C1232.22 69.4023 1231.63 69.6697 1231.12 70.0556L1221.54 77.3596H1219.31L1217.33 75.8499V85.2656C1217.61 85.3033 1217.89 85.3148 1218.17 85.2986C1219.66 85.215 1221.15 85.215 1222.64 85.2986C1223.66 85.3573 1224.67 85.0521 1225.47 84.4422L1234.63 77.4581C1237.29 78.2595 1239.88 79.2857 1242.36 80.5244L1243.68 91.6331C1243.79 92.6018 1244.27 93.4962 1245.04 94.1432C1246.15 95.0906 1247.21 96.0996 1248.2 97.1653C1248.88 97.8941 1249.82 98.3571 1250.83 98.4646L1262.47 99.7C1263.77 102.065 1264.84 104.536 1265.68 107.083L1258.37 115.814C1257.72 116.583 1257.4 117.554 1257.47 118.536H1257.48C1257.57 119.959 1257.57 121.385 1257.48 122.808C1257.42 123.782 1257.74 124.744 1258.38 125.505L1265.7 134.232C1264.86 136.779 1263.78 139.249 1262.48 141.615L1250.84 142.875C1249.82 142.982 1248.88 143.445 1248.21 144.174C1247.22 145.24 1246.16 146.249 1245.04 147.196C1244.28 147.843 1243.79 148.738 1243.68 149.706L1242.39 160.82C1239.91 162.059 1237.32 163.086 1234.66 163.886L1225.51 156.902C1224.78 156.344 1223.87 156.04 1222.94 156.041H1222.69C1221.2 156.124 1219.71 156.124 1218.22 156.041C1217.92 156.024 1217.62 156.037 1217.33 156.08V165.493ZM1217.33 144.112C1221.59 144.624 1225.92 144.072 1229.89 142.499C1234.41 140.711 1238.28 137.683 1241 133.798C1243.72 129.912 1245.17 125.345 1245.17 120.672C1245.16 114.408 1242.55 108.403 1237.91 103.974C1233.27 99.5448 1226.99 97.0537 1220.43 97.0471C1219.39 97.0471 1218.36 97.1095 1217.33 97.2324V105.201C1220.5 104.625 1223.76 104.945 1226.74 106.121C1229.75 107.313 1232.33 109.332 1234.14 111.922C1235.95 114.512 1236.92 117.557 1236.92 120.672C1236.92 124.849 1235.18 128.855 1232.09 131.809C1229 134.763 1224.8 136.422 1220.43 136.422C1219.38 136.422 1218.35 136.328 1217.33 136.143V144.112Z" fill="black"/>
<path fill-rule="evenodd" clip-rule="evenodd" d="M1220.43 45.5027C1220.21 45.5009 1219.99 45.5 1219.77 45.5C1178.9 45.5 1145.13 77.3364 1140.69 119.473L1126.47 139.136C1122.03 146.627 1121.14 155.991 1124.69 163.482C1128.25 170.036 1133.58 174.718 1139.8 175.655V185.955C1139.8 202.809 1151.35 217.791 1166.46 222.473V251.5H1220.43V232.773H1184.23V204.682H1175.34C1165.57 204.682 1157.57 196.255 1157.57 185.955V157.864H1144.24C1140.69 157.864 1138.02 153.182 1140.69 150.373L1157.57 126.964C1159.35 92.3182 1186.01 64.2273 1219.77 64.2273C1219.99 64.2273 1220.21 64.2284 1220.43 64.2307V45.5027Z" fill="black"/>
<path d="M1211.15 188.155H1220.43V251.5H1211.15V188.155Z" fill="black"/>
<rect width="9.78886" height="2.06081" transform="matrix(0.707385 0.706828 -0.707385 0.706828 1249.68 235.535)" fill="black"/>
<path fill-rule="evenodd" clip-rule="evenodd" d="M1255.5 244.29H1267.41V240.685H1251.89L1255.5 244.29Z" fill="black"/>
<path fill-rule="evenodd" clip-rule="evenodd" d="M1249.68 235.535H1220.43V239.14H1253.29L1249.68 235.535Z" fill="black"/>
<ellipse cx="1269.26" cy="242.23" rx="3.09244" ry="3.09" fill="black"/>
<rect width="12.0865" height="2.54453" transform="matrix(0.848899 -0.528546 -0.856991 -0.515342 1264.04 213.106)" fill="black"/>
<path fill-rule="evenodd" clip-rule="evenodd" d="M1272.65 205.057L1290.38 204.92L1290.4 208.206L1267.31 208.385L1272.65 205.057Z" fill="black"/>
<path fill-rule="evenodd" clip-rule="evenodd" d="M1264.05 213.106L1220.5 213.443L1220.47 210.156L1269.39 209.778L1264.05 213.106Z" fill="black"/>
<ellipse cx="3.09244" cy="3.09" rx="3.09244" ry="3.09" transform="matrix(0.99997 -0.00774 -0.00775221 -0.99997 1288.57 209.629)" fill="black"/>
<ellipse cx="1303.41" cy="223.175" rx="3.09244" ry="3.09" fill="black"/>
<rect x="1220.43" y="221.115" width="80.9188" height="3.605" fill="black"/>
<defs>
<filter id="filter0_dd_3_61" x="1161.29" y="67.75" width="61.6213" height="112" filterUnits="userSpaceOnUse" color-interpolation-filters="sRGB">
<feFlood flood-opacity="0" result="BackgroundImageFix"/>
<feColorMatrix in="SourceAlpha" type="matrix" values="0 0 0 0 0 0 0 0 0 0 0 0 0 0 0 0 0 0 127 0" result="hardAlpha"/>
<feMorphology radius="1" operator="dilate" in="SourceAlpha" result="effect1_dropShadow_3_61"/>
<feOffset dy="1"/>
<feGaussianBlur stdDeviation="1.5"/>
<feColorMatrix type="matrix" values="0 0 0 0 0 0 0 0 0 0 0 0 0 0 0 0 0 0 0.15 0"/>
<feBlend mode="normal" in2="BackgroundImageFix" result="effect1_dropShadow_3_61"/>
<feColorMatrix in="SourceAlpha" type="matrix" values="0 0 0 0 0 0 0 0 0 0 0 0 0 0 0 0 0 0 127 0" result="hardAlpha"/>
<feOffset dy="1"/>
<feGaussianBlur stdDeviation="1"/>
<feColorMatrix type="matrix" values="0 0 0 0 0 0 0 0 0 0 0 0 0 0 0 0 0 0 0.3 0"/>
<feBlend mode="normal" in2="effect1_dropShadow_3_61" result="effect2_dropShadow_3_61"/>
<feBlend mode="normal" in="SourceGraphic" in2="effect2_dropShadow_3_61" result="shape"/>
</filter>
</defs>
</svg>
